<svg xmlns="http://www.w3.org/2000/svg" width="48" height="48" viewBox="0 0 48 48"><path d="m10.026 21.201-1.959-.402c0-.294-.546-1.414-.945-2.232-1.276-2.617-3.206-6.572-1.291-9.636C7.484 6.286 11.546 5 18.25 5h7.796v2H18.25c-5.792 0-9.5 1.034-10.723 2.991-1.327 2.123.245 5.346 1.392 7.699.775 1.588 1.287 2.637 1.107 3.511z" style="fill:#263238"/><path d="M15.046 26a4 4 0 1 1-8.002-.002 4 4 0 0 1 8.002.002M43 26a4 4 0 1 0-8 0 4 4 0 0 0 8 0" style="fill:#ffa726"/><path d="M39.912 16.092C38.972 8.711 32.682 3 25.046 3c-7.168 0-13.152 5.031-14.637 11.751A6.896 6.896 0 0 0 10.046 17v12c0 8.286 8.75 16 15 16s15-7.714 15-16V17c0-.309-.054-.611-.134-.908z" style="fill:#ffb74d"/><path d="M20.046 36H30v2h-9.954z" style="fill:#ff9100"/><path d="M35 26a2 2 0 1 1-3.999.001A2 2 0 0 1 35 26m-15 0a2 2 0 1 0-4 0 2 2 0 0 0 4 0" style="fill:#784719"/><path d="M29.313 16H8.194c-3.437 13.5 1.938 20 1.938 20l3.914 3S16.75 29 25 29a2 2 0 0 0 2-2v-3s-.167-2 2-2h.313c.932 0 1.687-.755 1.687-1.687v-2.625c0-.933-.755-1.688-1.687-1.688zm-8.347 11.388-6.813 1.805A1.594 1.594 0 0 1 12 27.701v-3.107c0-.881.713-1.594 1.593-1.594h6.813c.881 0 1.594.713 1.594 1.593v1.302c0 .665-.412 1.259-1.034 1.493z" style="fill:#37474f"/><path d="M7.5 26a1.5 1.5 0 1 0 0 3 1.5 1.5 0 1 0 0-3Z" style="fill:#ff1744"/><path d="M17.046 20h-4a1 1 0 0 1-1-1v-4a1 1 0 0 1 1-1h4a1 1 0 0 1 1 1v4a1 1 0 0 1-1 1z" style="fill:#546e7a"/><path d="M15.046 15a2 2 0 1 0 0 4 2 2 0 1 0 0-4Z" style="fill:#b0bec5"/></svg>
