<svg xmlns="http://www.w3.org/2000/svg" xml:space="preserve" style="fill-rule:evenodd;clip-rule:evenodd;stroke-linejoin:round;stroke-miterlimit:2" viewBox="0 0 631 800"><path d="M630.286 520.019v174.358C630.286 752.761 489.234 800 315.142 800c-110.267 0-207.397-18.975-263.659-47.77C22.556 737.502 4.509 720.252.795 701.542A32.921 32.921 0 0 1 0 694.377V520.019c0-.531 0-1.061.131-1.591-.131-.265-.131-.398 0-.531 0-.93.133-1.858.266-2.786.133-.398.133-.797.266-1.195.132-1.063.396-2.122.796-3.185v-.133c.532-2.121 1.327-4.114 2.257-6.235 17.515-38.083 95.671-69.53 200.497-82.668a816.115 816.115 0 0 1 42.328-4.247h.797c21.893-1.725 44.585-2.52 67.806-2.52 23.22 0 45.911.795 67.804 2.52h.796a816.225 816.225 0 0 1 42.328 4.247c104.826 13.136 182.981 44.585 200.497 82.668.929 2.121 1.725 4.114 2.256 6.235v.133c.398 1.063.663 2.122.795 3.185.266 1.326.399 2.52.532 3.981v.531c.134.53.134 1.059.134 1.591Z" style="fill:#39526c;fill-rule:nonzero"/><path d="M630.286 520.55v8.359c0 58.385-141.052 105.755-315.144 105.755S0 587.294 0 528.909v-8.359c0 1.327.131 2.52.264 3.716 4.114 41.134 78.553 76.431 184.309 92.486 3.716.531 7.299 1.062 11.015 1.592 5.97.928 11.942 1.725 18.045 2.389 2.522.133 5.175.398 7.828.795 14.73 1.592 29.989 2.788 45.645 3.583 10.483.53 21.099.928 31.847 1.061 5.308.133 10.749.133 16.189.133 5.441 0 10.88 0 16.188-.133 10.748-.133 21.362-.531 31.847-1.061 15.657-.795 30.917-1.991 45.645-3.583a82.835 82.835 0 0 1 7.828-.795 395.284 395.284 0 0 0 18.045-2.389c3.716-.53 7.299-1.061 11.014-1.592 105.757-16.055 180.196-51.352 184.31-92.486.134-1.196.267-2.389.267-3.716Z" style="fill:#e8e8e9;fill-opacity:.1;fill-rule:nonzero"/><path d="M630.286 519.487v1.063c0 1.327-.133 2.52-.266 3.716-5.573 41.267-79.615 76.165-184.309 92.486-3.716.531-7.298 1.062-11.014 1.592-3.716.531-7.431.928-11.145 1.459-2.257.266-4.646.531-6.9.93a82.856 82.856 0 0 0-7.829.795c-9.82.928-19.903 1.858-30.121 2.522-5.175.398-10.35.795-15.525 1.061-10.483.398-21.099.795-31.847 1.061-5.308.133-10.749.133-16.188.133-5.44 0-10.881 0-16.189-.133-10.748-.266-21.362-.663-31.847-1.061-5.175-.266-10.35-.663-15.525-1.061-10.217-.664-20.301-1.594-30.122-2.522a82.802 82.802 0 0 0-7.828-.795c-2.254-.399-4.643-.664-6.9-.93-3.715-.531-7.431-.928-11.145-1.459-3.716-.53-7.298-1.061-11.014-1.592C79.88 600.431 5.838 565.533.264 524.266.131 523.07 0 521.877 0 520.55v-1.063c0-.396 0-.662.131-1.059-.131-.266-.131-.398 0-.531.133-1.461.266-2.655.532-3.981.132-.664.264-1.327.264-1.991-.132-.264 0-.53.132-.795 0-.266 0-.664.133-1.063.266-.795.399-1.723.797-2.52.399-1.195.93-2.52 1.459-3.849 16.455-37.817 91.425-69.132 192.669-83.065 12.075-1.724 24.549-3.185 37.419-4.245.133-.133.398-.133.531-.133 25.875-2.389 53.077-3.583 81.075-3.583 27.999 0 55.2 1.194 81.075 3.583.133 0 .399 0 .531.133 12.872 1.06 25.346 2.521 37.419 4.245 101.244 13.933 176.216 45.248 192.669 83.065.928 2.124 1.725 4.247 2.256 6.369.266 1.328.266 2.522.53 3.849.266 1.326.398 2.52.531 3.981v.531c0 .264.133.663.133 1.059ZM526.088 666.33v48.733c-25.388 7.676-54.515 13.982-86.38 18.575v-48.733c31.867-4.592 60.992-10.899 86.38-18.575Z" style="fill:#cedce4;fill-rule:nonzero"/><path d="M629.092 510.067c-.133.266-.133.399-.265.531v.133c-14.861 53.608-149.544 95.538-313.683 95.538-164.141 0-298.822-41.93-313.685-95.538v-.133c-.132-.132-.132-.265-.132-.398l-.133-.133c.265-.795.398-1.723.797-2.52.398-1.195.929-2.52 1.459-3.849 16.455-37.817 91.425-69.132 192.669-83.065 12.075-1.724 24.548-3.185 37.419-4.245.132-.133.398-.133.531-.133 25.875-2.389 53.076-3.583 81.075-3.583 27.998 0 55.2 1.194 81.075 3.583.133 0 .398 0 .531.133 12.872 1.06 25.345 2.521 37.419 4.245 101.244 13.933 176.215 45.248 192.669 83.065.928 2.124 1.723 4.247 2.254 6.369Z" style="fill:#040000;fill-opacity:.3;fill-rule:nonzero"/><path d="M630.286 313.816v174.226c0 5.306-1.195 10.614-3.45 15.656-.133.266-.266.532-.266.664-23.486 50.688-153.922 89.302-311.428 89.302S27.2 555.05 3.714 504.362c0-.132-.133-.398-.266-.664-.531-1.326-1.061-2.653-1.459-3.848-.398-1.325-.797-2.52-1.062-3.847v-.266c-.397-1.06-.532-2.256-.665-3.45C.131 490.827 0 489.5 0 488.041V313.684c0-3.053.531-6.237 1.327-9.156.132-.265.132-.531.265-.664.531-1.989 1.327-3.98 2.124-5.837 17.648-38.083 95.936-69.53 200.629-82.668 13.668-1.725 27.733-3.184 42.196-4.247 22.028-1.59 44.982-2.52 68.603-2.52 23.619 0 46.573.93 68.601 2.52 14.463 1.063 28.528 2.522 42.196 4.247 104.693 13.136 182.981 44.585 200.629 82.668.797 1.857 1.593 3.848 2.124 5.837.133.133.133.398.265.664.796 3.05 1.327 6.103 1.327 9.288Z" style="fill:#39526c;fill-rule:nonzero"/><path d="M630.286 314.347v8.361c0 44.184-81.075 82.003-196.119 97.925-2.655.265-5.44.664-8.094 1.062-34.5 4.246-71.92 6.635-110.929 6.635-39.011 0-76.432-2.389-110.932-6.635-2.654-.398-5.44-.797-8.093-1.062C81.075 404.711 0 366.892 0 322.708v-8.361c0 1.195.131 2.522.264 3.716 4.247 42.064 82.269 78.023 192.139 93.548l3.184.398c8.493 1.325 16.985 2.255 25.875 3.185 3.982.398 7.963.795 12.076 1.194 4.246.396 8.625.795 13.003 1.06h.796c16.719 1.329 33.969 2.124 51.618 2.389 5.308.132 10.748.132 16.189.132 5.44 0 10.879 0 16.187-.132 17.649-.265 34.899-1.06 51.617-2.389h.796c4.379-.265 8.758-.664 13.003-1.06 4.114-.399 8.094-.796 12.075-1.194 8.89-.93 17.383-1.86 25.875-3.185l3.186-.398c109.869-15.525 187.89-51.484 192.137-93.549.133-1.193.266-2.52.266-3.715Z" style="fill:#e8e8e9;fill-opacity:.1;fill-rule:nonzero"/><path d="M630.286 313.153v1.194c0 1.195-.133 2.522-.266 3.716-5.706 42.064-83.331 77.757-192.137 93.548l-3.186.398c-3.716.53-7.431.928-11.145 1.458-4.91.531-9.688 1.063-14.729 1.727-4.114.398-8.359.795-12.606 1.061-4.38.397-8.758.795-13.269 1.193-1.459 0-2.787.133-4.246.266-5.175.398-10.35.664-15.525.93a1241.29 1241.29 0 0 1-31.847 1.194h-32.377a1241.632 1241.632 0 0 1-31.847-1.194c-5.175-.266-10.35-.531-15.525-.93-1.459-.133-2.786-.266-4.247-.266-4.511-.398-8.89-.796-13.268-1.193-4.247-.266-8.493-.663-12.607-1.061-5.042-.664-9.818-1.196-14.728-1.727-3.715-.53-7.431-.928-11.145-1.458l-3.184-.398C83.595 395.819 5.97 360.127.264 318.063.131 316.869 0 315.542 0 314.347v-1.194c0-1.326.131-2.655.264-3.98.133-1.328.266-2.654.664-3.981 0-.398.133-.929.266-1.328h627.898c.289 1.106.249 2.253.433 3.364.325 1.616.536 3.253.631 4.909.01.343.13.668.13 1.016ZM526.088 460.017v48.733c-25.388 7.677-54.515 13.983-86.38 18.575v-48.733c31.867-4.594 60.992-10.898 86.38-18.575Z" style="fill:#cedce4;fill-rule:nonzero"/><path d="M628.959 303.863v.664c-15.259 53.607-149.809 95.537-313.815 95.537-164.008 0-298.557-41.93-313.817-95.537v-.665h627.632Z" style="fill:#040000;fill-opacity:.3;fill-rule:nonzero"/><path d="M630.286 107.48v174.225c0 5.572-1.328 11.014-3.716 16.32-.928 1.991-1.99 3.848-3.184 5.837-30.255 47.771-156.709 83.597-308.242 83.597-151.535 0-277.989-35.826-308.244-83.597-1.194-1.989-2.256-3.846-3.184-5.837 0-.133-.133-.398-.266-.664-.531-1.192-1.061-2.52-1.459-3.847-.399-1.061-.664-2.123-.93-3.184-.133-.399-.264-.928-.264-1.327-.266-1.062-.399-1.99-.531-3.051-.135-1.461-.266-2.788-.266-4.247V107.347C1.061 49.228 141.716 2.388 315.144 2.388c107.214 0 201.956 17.914 258.881 45.381 33.173 15.923 53.608 35.164 55.997 55.997.131 1.192.264 2.52.264 3.714Z" style="fill:#39526c;fill-rule:nonzero"/><path d="M630.286 108.011v8.359c0 45.247-84.923 83.861-204.345 98.988-34.5 4.247-71.786 6.634-110.797 6.634-39.011 0-76.299-2.387-110.799-6.634C84.922 200.231 0 161.617 0 116.372v-8.359c0 47.503 93.15 87.576 221.462 100.845 8.229.797 16.586 1.592 25.079 2.254 22.028 1.594 44.982 2.522 68.603 2.522 23.619 0 46.573-.928 68.601-2.522 8.493-.662 16.852-1.457 25.08-2.254 128.311-13.27 221.461-53.344 221.461-100.847Z" style="fill:#e8e8e9;fill-opacity:.1;fill-rule:nonzero"/><path d="M630.286 106.817v.663c-.797 47.636-93.681 87.842-221.463 101.376-8.228.797-16.586 1.592-25.079 2.255-22.027 1.594-44.983 2.522-68.602 2.522-23.62 0-46.575-.928-68.603-2.522-8.492-.663-16.851-1.458-25.078-2.255C93.681 195.322.797 155.116 0 107.48v-.663C0 47.902 141.05 0 315.144 0c105.092 0 198.109 17.516 255.431 44.319 35.827 16.719 57.72 37.286 59.445 59.447.266.928.266 1.989.266 3.051ZM526.088 253.703v48.733c-25.388 7.677-54.515 13.983-86.38 18.575v-48.733c31.867-4.592 60.992-10.898 86.38-18.575Z" style="fill:#cedce4;fill-rule:nonzero"/></svg>