<svg xmlns="http://www.w3.org/2000/svg" viewBox="0 0 128 128"><path fill="#2489ca" d="M3.895 45.043s-3.027-2.191.61-5.113l8.468-7.594s2.426-2.559 4.989-.328l78.175 59.328v28.45s-.039 4.468-5.757 3.976L3.895 45.043z"/><path fill="#1070b3" d="M23.942 63.177 3.662 81.655s-2.083 1.553 0 4.332l9.415 8.58s2.236 2.411 5.542-.33l21.494-16.34-16.171-14.72z"/><path fill="#0877b9" d="m59.184 63.531 36.953-28.285-.239-28.297S94.32.773 89.055 3.99L39.879 48.851l19.305 14.68z"/><path fill="#3c99d4" d="M90.14 123.797c2.145 2.203 4.747 1.48 4.747 1.48l28.797-14.222c3.687-2.52 3.171-5.645 3.171-5.645V20.465c0-3.735-3.812-5.024-3.812-5.024L98.082 3.38c-5.453-3.379-9.027.61-9.027.61s4.593-3.317 6.843 2.96v112.317c0 .773-.164 1.53-.492 2.214-.656 1.332-2.086 2.57-5.504 2.051l.238.265z"/></svg>
