<?xml version="1.0" encoding="UTF-8" standalone="no"?>
<!DOCTYPE svg PUBLIC "-//W3C//DTD SVG 1.1//EN" "http://www.w3.org/Graphics/SVG/1.1/DTD/svg11.dtd">
<svg width="100%" height="100%" viewBox="0 0 1000 1000" version="1.1" xmlns="http://www.w3.org/2000/svg" xmlns:xlink="http://www.w3.org/1999/xlink" xml:space="preserve" xmlns:serif="http://www.serif.com/" style="fill-rule:evenodd;clip-rule:evenodd;stroke-linejoin:round;stroke-miterlimit:2;">
    <g id="Color-Square" serif:id="Color Square">
        <g transform="matrix(1000,0,0,-1000,0,500)">
            <rect x="0" y="-0.5" width="1" height="1" style="fill:url(#_Linear1);"/>
        </g>
        <g transform="matrix(1,6.32118e-06,-6.32118e-06,1,839.054,555.505)">
            <path d="M0.056,-106.291L-0.527,-106.291L-61.64,-167.403C-63.861,-169.608 -65.111,-172.607 -65.112,-175.737L-65.112,-316.712C-65.158,-346.563 -89.346,-370.751 -119.197,-370.797L-157.364,-370.797C-187.226,-370.766 -211.431,-346.574 -211.477,-316.712L-211.477,-315.907L-301.701,-403.297C-322.995,-423.703 -356.671,-423.419 -377.619,-402.659L-683.181,-97.097C-704.314,-76.009 -704.351,-41.782 -683.263,-20.649C-683.235,-20.622 -683.208,-20.594 -683.181,-20.567L-654.097,8.378C-633.059,29.334 -599.079,29.47 -577.873,8.684L-343.035,-222.738C-338.421,-227.314 -330.981,-227.314 -326.368,-222.738L-96.28,7.378C-91.719,11.998 -91.719,19.425 -96.28,24.045L-124.558,52.323C-129.178,56.884 -136.605,56.884 -141.225,52.323L-302.784,-104.235C-324.08,-124.783 -357.909,-124.487 -378.841,-103.569L-533.872,52.268C-554.887,73.406 -554.887,107.547 -533.872,128.686L-505.177,157.381C-484.108,178.358 -450.073,178.444 -428.898,157.576L-345.312,74.991C-340.693,70.43 -333.265,70.43 -328.646,74.991L-245.533,156.687C-243.289,158.88 -242.018,161.882 -242.005,165.02C-242.016,168.148 -243.264,171.144 -245.477,173.354L-327.785,255.911C-328.146,255.911 -328.451,255.689 -328.84,255.689C-345.885,255.689 -359.702,269.506 -359.702,286.551C-359.702,303.595 -345.885,317.412 -328.84,317.412C-311.795,317.412 -297.979,303.595 -297.979,286.551L-297.979,286.023L-215.282,203.355C-194.156,182.216 -194.166,147.954 -215.304,126.828C-215.407,126.725 -215.511,126.622 -215.615,126.52L-298.729,44.851C-319.823,24.177 -353.58,24.177 -374.674,44.851L-458.537,127.547C-463.145,132.138 -470.597,132.138 -475.204,127.547L-503.844,98.824C-508.405,94.205 -508.405,86.777 -503.844,82.157L-348.702,-73.679C-344.141,-78.317 -336.687,-78.392 -332.035,-73.846L-170.503,83.102C-149.234,103.563 -115.525,103.316 -94.557,82.546L-66.251,54.24C-45.166,33.098 -45.166,-1.12 -66.251,-22.262L-296.451,-252.461C-317.491,-273.428 -351.479,-273.576 -372.702,-252.794L-607.541,-21.456C-612.172,-16.925 -619.576,-16.925 -624.208,-21.456L-653.18,-50.512C-657.771,-55.119 -657.771,-62.572 -653.18,-67.179L-347.618,-372.741C-343.043,-377.356 -335.603,-377.418 -330.951,-372.88L-169.003,-216.155L-169.003,-316.712C-168.988,-323.226 -163.711,-328.503 -157.198,-328.518L-119.03,-328.518C-112.512,-328.503 -107.227,-323.23 -107.196,-316.712L-107.196,-175.515C-107.146,-161.18 -101.458,-147.44 -91.363,-137.264L-30.556,-76.457C-30.556,-76.068 -30.778,-75.763 -30.778,-75.401C-30.763,-58.357 -16.933,-44.552 0.111,-44.568C17.156,-44.583 30.961,-58.413 30.945,-75.458C30.93,-92.502 17.1,-106.307 0.056,-106.291Z" style="fill:white;fill-rule:nonzero;"/>
        </g>
    </g>
    <defs>
        <linearGradient id="_Linear1" x1="0" y1="0" x2="1" y2="0" gradientUnits="userSpaceOnUse" gradientTransform="matrix(0,-1,-1,-0,0.5,0.5)"><stop offset="0" style="stop-color:rgb(87,39,124);stop-opacity:1"/><stop offset="1" style="stop-color:rgb(73,31,89);stop-opacity:1"/></linearGradient>
    </defs>
</svg>
