<svg xmlns="http://www.w3.org/2000/svg" xml:space="preserve" style="fill-rule:evenodd;clip-rule:evenodd;stroke-linejoin:round;stroke-miterlimit:2" viewBox="0 0 391 486"><path d="M451.736 620.624c-.004 4.693-1.278 8.095-3.6 10.484-2.322 2.389-5.686 3.788-9.755 4.739-4.07.949-8.836 1.488-13.928 1.961-5.092.472-10.508.842-15.947 1.173-5.437.329-10.608.37-15.362.091-4.754-.278-9.092-.853-12.792-1.826-3.7-.973-6.76-2.361-8.913-4.365-2.154-2.006-3.4-4.635-3.472-8.012-.072-3.377 1.065-5.852 3.121-7.556 2.055-1.705 5.026-2.628 8.64-3.037 3.613-.409 7.863-.302 12.554-.171 4.692.13 9.824.25 15.288-.13 5.461-.381 10.956-1.572 16.171-2.71 5.213-1.139 10.137-2.189 14.333-2.424 4.197-.234 7.657.346 10.025 2.183 2.369 1.838 3.643 4.906 3.637 9.6Z" style="fill:#e1d6b9;fill-rule:nonzero" transform="matrix(-.13059 -.42795 .6087 -.11093 -73.47 690.822)"/><path d="M439.375 606.452c-4-.029-8.626.576-13.613 1.373-5.698.911-11.848 2.048-18.144 2.481-6.296.433-12.171.408-17.544.441-5.371.034-10.244.171-14.408.918-4.163.744-7.611 2.098-10.035 4.232-2.425 2.136-3.824 5.032-3.896 8.721-.071 3.691 1.299 6.728 3.779 9.152 2.48 2.425 6.068 4.246 10.413 5.6 4.345 1.355 9.442 2.262 14.993 2.772 5.552.51 11.557.598 17.817.236 6.261-.36 12.237-.838 17.713-1.44 5.476-.599 10.446-1.304 14.621-2.499a29.47 29.47 0 0 0 4.402-1.621c2.715-1.273 2.187-6.584-.107-4.843-2.124 1.612-4.419 1.793-7.634 2.507-3.918.869-8.726 1.057-13.387 1.432-4.66.376-9.365 1.903-14.2 2.216-4.837.312-9.459.35-13.794.074-4.335-.274-8.381-.832-11.867-1.751-3.486-.921-6.397-2.219-8.411-4.068-2.012-1.85-3.12-4.254-3.176-7.255-.058-3.001.961-5.141 2.847-6.513 1.885-1.371 5.991-.624 9.27-.761 3.28-.139 7.368-.582 11.507-.445 4.141.135 6.983-.513 11.786-1.295 4.802-.782 9.762-2.5 14.813-3.969 5.05-1.47 9.84-2.499 13.876-2.724.493-.028.987-.044 1.481-.048 1.237-.008 2.4.047 3.466.251 1.23.237 2.471-3.051-.894-3.122-.545-.011-1.103-.048-1.674-.053v.001Z" style="fill:#394655;fill-rule:nonzero" transform="matrix(-.13059 -.42795 .6087 -.11093 -73.47 690.822)"/><path d="M451.736 620.624c-.004 4.693-1.278 8.095-3.6 10.484-2.322 2.389-5.686 3.788-9.755 4.739-4.07.949-8.836 1.488-13.928 1.961-5.092.472-10.508.842-15.947 1.173-5.437.329-10.608.37-15.362.091-4.754-.278-9.092-.853-12.792-1.826-3.7-.973-6.76-2.361-8.913-4.365-2.154-2.006-3.4-4.635-3.472-8.012-.072-3.377 1.065-5.852 3.121-7.556 2.055-1.705 5.026-2.628 8.64-3.037 3.613-.409 7.863-.302 12.554-.171 4.692.13 9.824.25 15.288-.13 5.461-.381 10.956-1.572 16.171-2.71 5.213-1.139 10.137-2.189 14.333-2.424 4.197-.234 7.657.346 10.025 2.183 2.369 1.838 3.643 4.906 3.637 9.6Z" style="fill:#e1d6b9;fill-rule:nonzero" transform="matrix(.13059 -.42795 -.6087 -.11093 429.5 684.332)"/><path d="M439.375 606.452c-4-.029-8.626.576-13.613 1.373-5.698.911-11.848 2.048-18.144 2.481-6.296.433-12.171.408-17.544.441-5.371.034-10.244.171-14.408.918-4.163.744-7.611 2.098-10.035 4.232-2.425 2.136-3.824 5.032-3.896 8.721-.071 3.691 1.299 6.728 3.779 9.152 2.48 2.425 6.068 4.246 10.413 5.6 4.345 1.355 9.442 2.262 14.993 2.772 5.552.51 11.557.598 17.817.236 6.261-.36 12.237-.838 17.713-1.44 5.476-.599 10.446-1.304 14.621-2.499a29.47 29.47 0 0 0 4.402-1.621c2.715-1.273 2.187-6.584-.107-4.843-2.124 1.612-4.419 1.793-7.634 2.507-3.918.869-8.726 1.057-13.387 1.432-4.66.376-9.365 1.903-14.2 2.216-4.837.312-9.459.35-13.794.074-4.335-.274-8.381-.832-11.867-1.751-3.486-.921-6.397-2.219-8.411-4.068-2.012-1.85-3.12-4.254-3.176-7.255-.058-3.001.961-5.141 2.847-6.513 1.885-1.371 5.991-.624 9.27-.761 3.28-.139 7.368-.582 11.507-.445 4.141.135 6.983-.513 11.786-1.295 4.802-.782 9.762-2.5 14.813-3.969 5.05-1.47 9.84-2.499 13.876-2.724.493-.028.987-.044 1.481-.048 1.237-.008 2.4.047 3.466.251 1.23.237 2.471-3.051-.894-3.122-.545-.011-1.103-.048-1.674-.053v.001Z" style="fill:#394655;fill-rule:nonzero" transform="matrix(.13059 -.42795 -.6087 -.11093 429.5 684.332)"/><path d="M-189.882 448.247c-.859 15.555-1.302 31.009-2.162 46.147-.86 15.139-2.139 29.96-4.688 44.24-2.548 14.28-6.367 28.017-12.293 40.981-5.927 12.963-13.963 25.151-24.919 36.344-13.823 14.122-32.633 25.525-54.966 33.952-22.331 8.428-48.188 13.882-76.115 16.066-27.925 2.185-57.928 1.099-88.48-3.626-30.549-4.726-61.651-13.094-91.614-25.537-8.664-3.599-17.404-8.992-25.726-15.501-8.32-6.509-16.221-14.134-23.213-22.2-6.991-8.066-13.072-16.574-17.752-24.849-4.68-8.277-7.959-16.321-9.353-23.463-2.913-14.93-3.768-28.441-3.542-41.163.225-12.723 1.53-24.658 2.943-36.434 1.414-11.776 2.936-23.394 3.616-35.49.682-12.096.524-24.668-1.415-38.372-1.545-10.908-3.286-21.468-4.913-32.056-1.629-10.587-3.144-21.203-4.23-32.219-1.086-11.017-1.744-22.432-1.654-34.624.09-12.189.926-25.152 2.832-39.264a229.163 229.163 0 0 1 6.11-29.996c2.845-10.327 6.549-20.781 11.267-30.75 4.717-9.969 10.447-19.454 17.333-27.834 6.889-8.38 14.936-15.656 24.274-21.208 12.234-7.274 23.75-13.461 35.033-18.58 11.282-5.119 22.334-9.169 33.622-12.166 11.289-2.997 22.816-4.941 35.036-5.848 12.221-.909 25.133-.781 39.177.362 19.998 1.626 39.865 3.289 59.221 5.605 19.357 2.314 38.203 5.285 56.128 9.522 17.927 4.237 34.933 9.741 50.581 17.117 15.646 7.376 29.93 16.625 42.408 28.328 8.906 8.352 16.263 17.952 22.201 28.432 5.938 10.48 10.459 21.84 13.71 33.724 3.251 11.882 5.233 24.288 6.099 36.868.866 12.58.616 25.336-.613 37.934a1926.413 1926.413 0 0 1-2.805 26.696 4695.29 4695.29 0 0 1-2.921 25.368c-.967 8.247-1.917 16.293-2.812 24.157a1712.62 1712.62 0 0 0-2.488 23.058c-.311 3.103-.609 6.207-.894 9.312-.28 3.047-.544 6.096-.793 9.145a773.918 773.918 0 0 0-.677 8.987 636.41 636.41 0 0 0-.553 8.835Z" style="fill:#394655;fill-rule:nonzero" transform="matrix(.69027 0 0 .73815 465.498 -44.74)"/><path d="M-199.217 505.794c-.802 14.327-2.79 28.597-6.4 42.333-3.61 13.735-8.843 26.936-16.139 39.116-7.296 12.18-16.655 23.337-28.493 32.985-11.839 9.647-26.156 17.781-43.35 23.933-15.975 5.715-34.134 9.96-53.76 12.549-19.626 2.589-40.722 3.523-62.552 2.589a394.086 394.086 0 0 1-66.925-8.652c-22.525-4.915-45.005-11.942-66.592-21.338-8.215-3.577-16.48-8.909-24.321-15.315-7.84-6.405-15.257-13.882-21.778-21.754-6.522-7.872-12.149-16.137-16.416-24.118-4.267-7.983-7.172-15.681-8.255-22.421-2.278-14.186-2.859-27.214-2.565-39.59.294-12.377 1.46-24.101 2.683-35.677 1.224-11.578 2.504-23.006 3.045-34.797.539-11.792.34-23.945-1.395-36.985-1.447-10.886-3.022-21.127-4.485-31.244-1.461-10.117-2.812-20.111-3.803-30.498-.989-10.387-1.621-21.168-1.642-32.863-.019-11.695.57-24.304 2.026-38.353a208.755 208.755 0 0 1 5.165-29.23c2.544-10.101 5.963-20.353 10.408-30.137 4.446-9.783 9.919-19.096 16.565-27.311 6.647-8.214 14.469-15.329 23.598-20.714 11.564-6.822 22.339-12.736 32.838-17.718 10.499-4.981 20.723-9.029 31.17-12.117 10.447-3.09 21.117-5.219 32.492-6.364 11.376-1.144 23.457-1.304 36.709-.456 20.999 1.344 42.058 2.843 62.601 5.193 20.544 2.35 40.573 5.551 59.48 10.292 18.909 4.74 36.694 11.02 52.717 19.516 16.023 8.496 30.278 19.209 42.129 32.782 10.837 12.411 18.102 26.861 22.803 42.422 4.703 15.562 6.848 32.232 7.478 49.125.629 16.893-.251 34.01-1.666 50.508-1.417 16.499-3.368 32.384-5.012 46.831a927.83 927.83 0 0 0-1.796 17.218 994.683 994.683 0 0 0-1.442 16.627 1255.83 1255.83 0 0 0-1.675 24.6c-.471 8.027-.872 15.894-1.243 23.643-.372 7.748-.713 15.378-1.067 22.93s-.719 15.024-1.135 22.46Z" style="fill:#96d6ff;fill-rule:nonzero" transform="matrix(.69027 0 0 .73815 465.498 -44.74)"/><path d="M-668.344 428.476c2.397 12.106.391 23.882-4.099 34.173-4.491 10.293-11.254 19.099-18.902 25.967-7.647 6.869-16.271 11.851-26.208 14.518-9.939 2.667-22.346 4.771-33.755 1.951-11.409-2.821-19.299-10.467-25.758-18.4-6.46-7.936-13.273-17.673-24.637-27.051-11.364-9.379-22.349-18.974-26.987-28.665-4.64-9.691-7.59-19.585-8.512-29.356-.922-9.771.263-18.522 3.159-26.223 2.896-7.702 7.5-14.352 13.504-19.773 6.004-5.421 13.404-9.611 21.966-12.256 8.561-2.643 18.277-3.739 29.024-2.844 10.744.894 21.525 3.704 31.947 8.163 10.424 4.459 20.496 10.569 29.56 18.024 9.063 7.455 17.104 16.256 23.249 26.042 6.144 9.788 14.052 23.622 16.449 35.73Z" style="fill:#96d6ff;fill-rule:nonzero" transform="matrix(.33648 -.02693 .01064 .3062 332.469 -101.505)"/><path d="M-836.555 486.297a5.804 5.804 0 0 0-1.664.28 4.754 4.754 0 0 0-1.739.997 4.163 4.163 0 0 0-1.086 1.574 4.644 4.644 0 0 0-.278 2.066c.071.798.285 1.577.631 2.3.352.758 1.063 1.514 1.968 2.222.905.709 1.454 1.462 1.955 2.07.502.604.303.452 1.253.536.108.01.131-.334.036-.361-.834-.232-.434-.31-.928-.779-.457-.558-.937-1.243-1.739-1.903-.803-.66-1.578-1.335-1.906-2.018a6.178 6.178 0 0 1-.605-2.067 4.082 4.082 0 0 1 .222-1.846 3.536 3.536 0 0 1 .953-1.394 4.123 4.123 0 0 1 1.551-.864c.316-.096.64-.161.969-.194a5.908 5.908 0 0 1 1.083-.008 7.27 7.27 0 0 1 2.255.573c.752.323 1.454.75 2.085 1.27a7.696 7.696 0 0 1 1.638 1.833c.433.689.989 1.663 1.16 2.516.139.699.329.72.07 1.445-.049.134.597.149.735-.176.259-.608-.015-.621-.166-1.291-.205-.906-.741-1.994-1.22-2.758a8.436 8.436 0 0 0-1.817-2.026 9.328 9.328 0 0 0-2.304-1.382 7.87 7.87 0 0 0-2.496-.602c-.205-.013-.411-.018-.616-.013Z" style="fill:#394655;fill-rule:nonzero" transform="matrix(4.66056 -.37303 .14733 4.24118 3901.26 -2352.8)"/><path d="M-776.155 394.431c-4.295 1.383-8.249 4.554-10.841 10.552-1.872 4.335-2.261 9.769-1.335 16.527.615 4.492 1.812 9.569 3.541 15.297.615 2.038 4.683 6.456 7.335 8.616 4.252 3.462 9.587 7.442 10.202 6.632.43-.565-6.631-4.102-10.251-8.648-3.018-3.791-4.292-7.837-5.241-14.137-1.419-9.418-.497-15.304 1.426-19.754 2.811-6.505 7.29-9.114 12.189-9.678 4.898-.565 10.098 1.056 13.839 2.759 7.976 3.632 18.549 9.653 29.886 23.06 2.101 2.486 3.607 1.262 1.48-1.16-11.893-13.545-22.315-22.907-31.694-27.247-4.327-2.002-10.293-4.048-16.167-3.643a18.347 18.347 0 0 0-4.369.824Z" style="fill:#394655" transform="matrix(.33648 -.02693 .01064 .3062 332.469 -101.505)"/><path d="M-668.344 428.476c2.397 12.106.391 23.882-4.099 34.173-4.491 10.293-11.254 19.099-18.902 25.967-7.647 6.869-16.271 11.851-26.208 14.518-9.939 2.667-22.346 4.771-33.755 1.951-11.409-2.821-19.299-10.467-25.758-18.4-6.46-7.936-13.273-17.673-24.637-27.051-11.364-9.379-22.349-18.974-26.987-28.665-4.64-9.691-7.59-19.585-8.512-29.356-.922-9.771.263-18.522 3.159-26.223 2.896-7.702 7.5-14.352 13.504-19.773 6.004-5.421 13.404-9.611 21.966-12.256 8.561-2.643 18.277-3.739 29.024-2.844 10.744.894 21.525 3.704 31.947 8.163 10.424 4.459 20.496 10.569 29.56 18.024 9.063 7.455 17.104 16.256 23.249 26.042 6.144 9.788 14.052 23.622 16.449 35.73Z" style="fill:#96d6ff;fill-rule:nonzero" transform="matrix(-.33317 .05422 .06281 .29987 -2.18 -38.757)"/><path d="M-836.555 486.297a5.804 5.804 0 0 0-1.664.28 4.754 4.754 0 0 0-1.739.997 4.163 4.163 0 0 0-1.086 1.574 4.644 4.644 0 0 0-.278 2.066c.071.798.285 1.577.631 2.3.352.758 1.063 1.514 1.968 2.222.905.709 1.454 1.462 1.955 2.07.502.604.303.452 1.253.536.108.01.131-.334.036-.361-.834-.232-.434-.31-.928-.779-.457-.558-.937-1.243-1.739-1.903-.803-.66-1.578-1.335-1.906-2.018a6.178 6.178 0 0 1-.605-2.067 4.082 4.082 0 0 1 .222-1.846 3.536 3.536 0 0 1 .953-1.394 4.123 4.123 0 0 1 1.551-.864c.316-.096.64-.161.969-.194a5.908 5.908 0 0 1 1.083-.008 7.27 7.27 0 0 1 2.255.573c.752.323 1.454.75 2.085 1.27a7.696 7.696 0 0 1 1.638 1.833c.433.689.989 1.663 1.16 2.516.139.699.329.72.07 1.445-.049.134.597.149.735-.176.259-.608-.015-.621-.166-1.291-.205-.906-.741-1.994-1.22-2.758a8.436 8.436 0 0 0-1.817-2.026 9.328 9.328 0 0 0-2.304-1.382 7.87 7.87 0 0 0-2.496-.602c-.205-.013-.411-.018-.616-.013Z" style="fill:#394655;fill-rule:nonzero" transform="matrix(-4.61475 .75103 .87003 4.1536 -4005.43 -1372.4)"/><path d="M-776.155 394.431c-4.295 1.383-8.249 4.554-10.841 10.552-1.872 4.335-2.261 9.769-1.335 16.527.615 4.492 1.812 9.569 3.541 15.297.615 2.038 4.683 6.456 7.335 8.616 4.252 3.462 9.587 7.442 10.202 6.632.43-.565-6.631-4.102-10.251-8.648-3.018-3.791-4.292-7.837-5.241-14.137-1.419-9.418-.497-15.304 1.426-19.754 2.811-6.505 7.29-9.114 12.189-9.678 4.898-.565 10.098 1.056 13.839 2.759 7.976 3.632 18.549 9.653 29.886 23.06 2.101 2.486 3.607 1.262 1.48-1.16-11.893-13.545-22.315-22.907-31.694-27.247-4.327-2.002-10.293-4.048-16.167-3.643a18.347 18.347 0 0 0-4.369.824Z" style="fill:#394655" transform="matrix(-.33317 .05422 .06281 .29987 -2.18 -38.757)"/><g transform="matrix(-.61836 0 0 .61836 380.002 -53.715)"><path d="M583.923 339.376c-.469 15.756-4.405 30.961-11.083 45.069-6.678 14.107-16.098 27.122-27.525 38.396-11.426 11.275-24.858 20.809-39.593 27.83-14.735 7.021-30.774 11.523-47.468 12.653-16.694 1.129-32.47-1.237-46.74-6.58-14.268-5.343-27.029-13.66-37.653-24.324-10.625-10.663-19.111-23.669-24.817-38.302-5.707-14.632-8.631-30.89-8.151-47.979.48-17.091 4.313-33.381 10.818-48.085 6.504-14.704 15.675-27.821 26.848-38.674 11.171-10.854 24.343-19.445 38.891-25.239 14.55-5.792 30.477-8.793 47.179-8.56a129.458 129.458 0 0 1 47.051 9.537C526.131 241 539.136 249.345 550 259.56c10.864 10.217 19.586 22.309 25.469 35.769 5.882 13.461 8.923 28.29 8.454 44.047Z" style="fill:#394655;fill-rule:nonzero"/><path d="M575.703 335.776c.001 14.827-3.216 29.374-9.08 43.043-5.865 13.668-14.379 26.459-24.936 37.602-10.556 11.145-23.152 20.632-37.104 27.604-13.952 6.973-29.253 11.427-45.202 12.552-15.949 1.124-31.03-1.187-44.651-6.327-13.618-5.14-25.779-13.107-35.909-23.243-10.129-10.138-18.229-22.446-23.714-36.219-5.486-13.773-8.355-29.008-8.025-44.945.331-15.936 3.83-31.048 9.846-44.648a112.905 112.905 0 0 1 24.956-35.703c10.409-10.016 22.696-17.961 36.269-23.405 13.575-5.444 28.438-8.392 44.039-8.472 15.599-.08 30.463 2.701 44.01 7.727 13.549 5.026 25.78 12.303 36.071 21.371 10.291 9.07 18.644 19.936 24.428 32.228 5.783 12.291 9.001 26.008 9.002 40.835Z" style="fill:#fff;fill-rule:nonzero"/><circle cx="492.058" cy="330.707" r="32.864" style="fill:#394455"/><circle cx="477.512" cy="315.622" r="16.162" style="fill:#fff"/></g><g transform="matrix(-.61836 0 0 .61836 582.045 -55.767)"><path d="M583.923 339.376c-.469 15.756-4.405 30.961-11.083 45.069-6.678 14.107-16.098 27.122-27.525 38.396-11.426 11.275-24.858 20.809-39.593 27.83-14.735 7.021-30.774 11.523-47.468 12.653-16.694 1.129-32.47-1.237-46.74-6.58-14.268-5.343-27.029-13.66-37.653-24.324-10.625-10.663-19.111-23.669-24.817-38.302-5.707-14.632-8.631-30.89-8.151-47.979.48-17.091 4.313-33.381 10.818-48.085 6.504-14.704 15.675-27.821 26.848-38.674 11.171-10.854 24.343-19.445 38.891-25.239 14.55-5.792 30.477-8.793 47.179-8.56a129.458 129.458 0 0 1 47.051 9.537C526.131 241 539.136 249.345 550 259.56c10.864 10.217 19.586 22.309 25.469 35.769 5.882 13.461 8.923 28.29 8.454 44.047Z" style="fill:#394655;fill-rule:nonzero"/><path d="M575.703 335.776c.001 14.827-3.216 29.374-9.08 43.043-5.865 13.668-14.379 26.459-24.936 37.602-10.556 11.145-23.152 20.632-37.104 27.604-13.952 6.973-29.253 11.427-45.202 12.552-15.949 1.124-31.03-1.187-44.651-6.327-13.618-5.14-25.779-13.107-35.909-23.243-10.129-10.138-18.229-22.446-23.714-36.219-5.486-13.773-8.355-29.008-8.025-44.945.331-15.936 3.83-31.048 9.846-44.648a112.905 112.905 0 0 1 24.956-35.703c10.409-10.016 22.696-17.961 36.269-23.405 13.575-5.444 28.438-8.392 44.039-8.472 15.599-.08 30.463 2.701 44.01 7.727 13.549 5.026 25.78 12.303 36.071 21.371 10.291 9.07 18.644 19.936 24.428 32.228 5.783 12.291 9.001 26.008 9.002 40.835Z" style="fill:#fff;fill-rule:nonzero"/><circle cx="421.121" cy="335.203" r="32.864" style="fill:#394455"/><circle cx="406.574" cy="320.118" r="16.162" style="fill:#fff"/></g><path d="m833.287 520.199 6.78.089 3.97-.088c1.267-.027 2.305.572 2.997 1.455.694.883.92 2.107.918 3.442l-.01 7.558.406 7.585c.074 1.366-.46 2.57-1.249 3.447a4.223 4.223 0 0 1-3.079 1.404l-4.008.096-7.874-.185c-1.51-.035-2.833-.624-3.734-1.528-.901-.905-1.335-2.135-1.264-3.477l.395-7.527.524-7.515c.093-1.337.864-2.535 1.826-3.393.964-.858 2.18-1.37 3.403-1.363h-.001Z" style="fill:#2e3436;fill-rule:nonzero" transform="matrix(-1 0 0 1 1047.61 -292.227)"/><path d="m834.197 522.487 5.533.075 2.656-.108c1.008-.041 1.861.464 2.453 1.187.592.724.853 1.726.885 2.821l.178 6.179.445 6.195a3.855 3.855 0 0 1-.928 2.818c-.625.716-1.511 1.103-2.511 1.143l-2.727.107-6.258-.135a4.383 4.383 0 0 1-2.992-1.243c-.745-.738-1.145-1.744-1.126-2.843l.109-6.154.216-6.147c.037-1.095.603-2.077 1.352-2.78.747-.703 1.717-1.128 2.715-1.115Z" style="fill:#fff;fill-rule:nonzero" transform="matrix(-1 0 0 1 1047.61 -292.227)"/><path d="M868.962 517.069c-.19 2.423-1.682 4.615-3.804 6.588-2.122 1.974-5.051 3.723-8.445 5.157a47.151 47.151 0 0 1-11.099 3.124 43.284 43.284 0 0 1-11.666.189 43.594 43.594 0 0 1-10.32-2.538c-3.002-1.144-5.524-2.502-7.51-4.01-1.987-1.507-3.456-3.175-4.383-5.038-.928-1.863-1.312-3.926-.975-6.147.336-2.223 1.378-4.389 2.986-6.38 1.608-1.991 3.77-3.803 6.31-5.312 2.541-1.509 5.454-2.712 8.671-3.5 3.216-.789 6.739-1.164 10.592-1.037a48.69 48.69 0 0 1 11.353 1.755c3.651 1.014 7.093 2.436 9.96 4.171 2.869 1.736 5.227 3.737 6.603 5.995 1.408 2.312 1.888 4.917 1.727 6.983Z" style="fill:#394655;fill-rule:nonzero" transform="matrix(-1 0 0 1 1047.61 -292.227)"/><path d="M860.802 516.525c-.331 1.924-1.457 3.722-3.185 5.333-1.729 1.611-4.059 3.036-6.707 4.175a34.82 34.82 0 0 1-8.61 2.421 34.184 34.184 0 0 1-9.099.114 32.288 32.288 0 0 1-8.057-2.031c-2.34-.933-4.315-2.068-5.863-3.333-1.549-1.266-2.678-2.669-3.341-4.196a8.186 8.186 0 0 1-.523-4.939c.346-1.756 1.215-3.441 2.497-4.979 1.282-1.538 2.976-2.927 4.971-4.076 1.994-1.149 4.286-2.058 6.815-2.646 2.528-.588 5.293-.856 8.285-.732a37.19 37.19 0 0 1 8.732 1.431c2.79.806 5.411 1.918 7.624 3.267 2.213 1.348 4.011 2.933 5.154 4.663 1.145 1.731 1.637 3.603 1.307 5.528Z" style="fill:#e1d0cb;fill-rule:nonzero" transform="matrix(-1 0 0 1 1047.61 -292.227)"/><path d="M854.109 504.123c-.482 1.38-1.531 2.604-2.983 3.638-1.451 1.034-3.299 1.878-5.305 2.526a32.89 32.89 0 0 1-6.266 1.342c-2.108.241-4.17.268-6.102.055-1.931-.213-3.562-.649-4.941-1.253-1.381-.605-2.51-1.38-3.4-2.292-.889-.912-1.54-1.962-1.919-3.127a7.588 7.588 0 0 1-.226-3.795c.256-1.352.854-2.647 1.76-3.818.905-1.17 2.115-2.215 3.579-3.063 1.462-.848 3.178-1.498 5.085-1.884 1.906-.386 4.002-.509 6.211-.31a23.55 23.55 0 0 1 6.235 1.418c1.912.724 3.621 1.673 5.004 2.775 1.384 1.102 2.443 2.357 3.035 3.683.592 1.327.716 2.726.234 4.107l-.001-.002Z" style="fill:#394655;fill-rule:nonzero" transform="matrix(-1 0 0 1 1047.61 -292.227)"/><g transform="translate(-25.09)"><ellipse cx="220.765" cy="347.029" rx="97.484" ry="92.871" style="fill:#333"/><ellipse cx="221.311" cy="347.237" rx="88.019" ry="85.096" style="fill:#ececec"/><path d="M316.847 157.344h16.108v9.342h-16.108z" style="fill:#333;fill-rule:nonzero" transform="rotate(19)"/><path d="M405.472-183.533h16.108v8.698h-16.108z" style="fill:#333;fill-rule:nonzero" transform="rotate(68.8)"/><ellipse cx="223.543" cy="349.132" rx="15.094" ry="15.332" style="fill:#333"/><path d="M395.226-21.819h24.483v8.485h-24.483z" style="fill:#333;fill-rule:nonzero" transform="rotate(45)"/><path d="M-4.414-410.365H12v5.689H-4.414z" style="fill:#333;fill-rule:nonzero" transform="scale(-1.02788 -.97132) rotate(-45)"/><ellipse cx="223.215" cy="349.095" rx="9.405" ry="9.553" style="fill:#ececec"/><path d="M8.855-409.911h13.7v8.574h-13.7zM156.99-409.377h13.7v8.574h-13.7z" style="fill:#333" transform="rotate(135)"/><path d="M-484.596-93.35h13.7v8.574h-13.7zM-331.33-92.82h13.7v8.574h-13.7z" style="fill:#333" transform="rotate(-135)"/><path d="M-429.775 220.7h13.7v8.574h-13.7zM-278.645 218.552h13.7v8.574h-13.7z" style="fill:#333" transform="rotate(-90)"/><path d="M137.462 345.276h13.7v8.574h-13.7zM287.989 345.008h13.7v8.574h-13.7z" style="fill:#333"/><path d="M85.252 405.685h45.962v6.629H85.252z" style="fill:#333" transform="rotate(-22.5)"/></g><path d="M451.736 620.624c-.004 4.693-1.278 8.095-3.6 10.484-2.322 2.389-5.686 3.788-9.755 4.739-4.07.949-8.836 1.488-13.928 1.961-5.092.472-10.508.842-15.947 1.173-5.437.329-10.608.37-15.362.091-4.754-.278-9.092-.853-12.792-1.826-3.7-.973-6.76-2.361-8.913-4.365-2.154-2.006-3.4-4.635-3.472-8.012-.072-3.377 1.065-5.852 3.121-7.556 2.055-1.705 5.026-2.628 8.64-3.037 3.613-.409 7.863-.302 12.554-.171 4.692.13 9.824.25 15.288-.13 5.461-.381 10.956-1.572 16.171-2.71 5.213-1.139 10.137-2.189 14.333-2.424 4.197-.234 7.657.346 10.025 2.183 2.369 1.838 3.643 4.906 3.637 9.6Z" style="fill:#e1d6b9;fill-rule:nonzero" transform="matrix(-.35195 -.27627 -.3232 .5276 443.914 107.189)"/><path d="M439.375 606.452c-4-.029-8.626.576-13.613 1.373-5.698.911-11.848 2.048-18.144 2.481-6.296.433-12.171.408-17.544.441-5.371.034-10.244.171-14.408.918-4.163.744-7.611 2.098-10.035 4.232-2.425 2.136-3.824 5.032-3.896 8.721-.071 3.691 1.299 6.728 3.779 9.152 2.48 2.425 6.068 4.246 10.413 5.6 4.345 1.355 9.442 2.262 14.993 2.772 5.552.51 11.557.598 17.817.236 6.261-.36 12.237-.838 17.713-1.44 5.476-.599 10.446-1.304 14.621-2.499a29.47 29.47 0 0 0 4.402-1.621c2.715-1.273 2.187-6.584-.107-4.843-2.124 1.612-4.864 2.67-8.074 3.421-3.914.914-8.499 1.43-13.397 1.885-4.898.454-10.106.81-15.337 1.127-5.23.317-10.203.358-14.775.09-4.573-.268-8.745-.82-12.304-1.757-3.559-.937-6.502-2.272-8.573-4.199-2.071-1.929-3.27-4.457-3.339-7.705-.07-3.248 1.024-5.629 3.001-7.268 1.978-1.64 4.833-2.528 8.31-2.922 3.474-.392 7.564-.29 12.076-.164 4.512.126 9.448.241 14.702-.125s10.539-1.511 15.554-2.606c5.016-1.095 9.75-2.104 13.786-2.329.493-.028.987-.044 1.481-.048 1.237-.008 2.4.047 3.466.251 1.23.237 2.471-3.051-.894-3.122-.545-.011-1.103-.048-1.674-.053v.001Z" style="fill:#394655;fill-rule:nonzero" transform="matrix(-.35195 -.27627 -.3232 .5276 443.914 107.189)"/><path d="M451.736 620.624c-.004 4.693-1.278 8.095-3.6 10.484-2.322 2.389-5.686 3.788-9.755 4.739-4.07.949-8.836 1.488-13.928 1.961-5.092.472-10.508.842-15.947 1.173-5.437.329-10.608.37-15.362.091-4.754-.278-9.092-.853-12.792-1.826-3.7-.973-6.76-2.361-8.913-4.365-2.154-2.006-3.4-4.635-3.472-8.012-.072-3.377 1.065-5.852 3.121-7.556 2.055-1.705 5.026-2.628 8.64-3.037 3.613-.409 7.863-.302 12.554-.171 4.692.13 9.824.25 15.288-.13 5.461-.381 10.956-1.572 16.171-2.71 5.213-1.139 10.137-2.189 14.333-2.424 4.197-.234 7.657.346 10.025 2.183 2.369 1.838 3.643 4.906 3.637 9.6Z" style="fill:#e1d6b9;fill-rule:nonzero" transform="matrix(.35903 -.26701 .30933 .53585 -40.897 97.337)"/><path d="M439.375 606.452c-4-.029-8.626.576-13.613 1.373-5.698.911-11.848 2.048-18.144 2.481-6.296.433-12.171.408-17.544.441-5.371.034-10.244.171-14.408.918-4.163.744-7.611 2.098-10.035 4.232-2.425 2.136-3.824 5.032-3.896 8.721-.071 3.691 1.299 6.728 3.779 9.152 2.48 2.425 6.068 4.246 10.413 5.6 4.345 1.355 9.442 2.262 14.993 2.772 5.552.51 11.557.598 17.817.236 6.261-.36 12.237-.838 17.713-1.44 5.476-.599 10.446-1.304 14.621-2.499a29.47 29.47 0 0 0 4.402-1.621c2.715-1.273 2.187-6.584-.107-4.843-2.124 1.612-4.864 2.67-8.074 3.421-3.914.914-8.499 1.43-13.397 1.885-4.898.454-10.106.81-15.337 1.127-5.23.317-10.203.358-14.775.09-4.573-.268-8.745-.82-12.304-1.757-3.559-.937-6.502-2.272-8.573-4.199-2.071-1.929-3.27-4.457-3.339-7.705-.07-3.248 1.024-5.629 3.001-7.268 1.978-1.64 4.833-2.528 8.31-2.922 3.474-.392 7.564-.29 12.076-.164 4.512.126 9.448.241 14.702-.125s10.539-1.511 15.554-2.606c5.016-1.095 9.75-2.104 13.786-2.329.493-.028.987-.044 1.481-.048 1.237-.008 2.4.047 3.466.251 1.23.237 2.471-3.051-.894-3.122-.545-.011-1.103-.048-1.674-.053v.001Z" style="fill:#394655;fill-rule:nonzero" transform="matrix(.35903 -.26701 .30933 .53585 -40.897 97.337)"/></svg>