<svg xmlns="http://www.w3.org/2000/svg" width="96" height="96" viewBox="0 0 96 96"><path d="M75.5 31.5v32c.322 2.222-.345 4.056-2 5.5-23.333.667-46.667.667-70 0L2 67.5a400.248 400.248 0 0 1 0-40L3.5 26c23.333-.667 46.667-.667 70 0 1.655 1.444 2.322 3.278 2 5.5Z" style="fill:#7b8893"/><path d="M75.5 31.5h18v6h-18v-6Z" style="fill:#656f78"/><path d="M75.5 37.5h18v4h-18v-4Z" style="fill:#fab500"/><path d="M13.5 40.5c6.664-.5 9.831 2.5 9.5 9-3.913 6.117-8.246 6.45-13 1-.667-2-.667-4 0-6a19.568 19.568 0 0 0 3.5-4Z" style="fill:#eeefef"/><path d="M75.5 41.5h18v12h-18v-4h14v-4h-14v-4Z" style="fill:#67717a"/><path d="M45.5 35.5c12.717-.204 17.55 5.796 14.5 18-7.034 7.913-14.034 7.913-21 0-3.156-8.006-.99-14.006 6.5-18Z" style="fill:#fabe11"/><path d="M75.5 45.5h14v4h-14v-4Z" style="fill:#f8b402"/><path d="M75.5 53.5h18v4h-18v-4Z" style="fill:#fab500"/><path d="M75.5 57.5h18v6h-18v-6Z" style="fill:#667079"/></svg>
