<svg xmlns="http://www.w3.org/2000/svg" xml:space="preserve" fill-rule="evenodd" stroke-linejoin="round" stroke-miterlimit="2" clip-rule="evenodd" viewBox="0 0 51500 51500"><path fill="#09204d" fill-rule="nonzero" d="m37269 22818-535-1775-1530-2885-1749-1844-1857-1326-1612-633-1935-688-3185-203-2009 363-1639 504-2908 1702-1818 2027-1676 2723-660 2316-122 3515 628 2396 1387 2728 977 1318 1352 1240 1221.1 1551.4 2201.9 788.1c976.9 506.1 2433.7 771.4 3800.6 497.7L27454 36803l2692-759 2407-1320 1549-1322 1200-1432 1698-3324 375-2273-106-3555Z"/><path fill="#144eac" fill-rule="nonzero" d="M47898 16736c-1046-2512-3164-5225-4827-6082 1354 2650 2137 5310 2437 7293l3 23 4 26c2270 6147 1034 12397-749 16217-2757 5910-9432 11967-19880 11671-11290-319-21234-8685-23090-19643-339-1728 0-2605 170-4008-208 1082-287 1394-390 3316 0 40-3 81-3 122 0 13271 10772 24029 24060 24029 11662.5 5.7 21732.7-8470.5 23717-19963l110-927c478-4120-54-8452-1561-12074h-1Z"/><path fill="#0099ed" fill-rule="nonzero" d="M1796 26241c1856 10958 11800 19324 23090 19643 10448 296 17123-5761 19880-11670 1783-3820 3020-10070 750-16218l-2-3-3-23c-.1-7.8-1.1-15.5-3-23l4 40c854 5566-1981 10958-6412 14604l-14 32c-8634 7022-16897 4236-18570 3096-117.5-56.3-234.2-114.3-350-174-5034-2403-7113-6984-6667-10912-4251 0-5700-3581-5700-3581s3816-2718 8846-354c4658 2190 9033 354 9033 354-9-195-4196-1859-5829-3466-872-858-1286-1272-1653-1582-199-167.9-406.9-324.8-623-470-165.2-111.8-331.5-221.8-499-330-1755-1140-5245-1077-5360-1074h-11c-954-1206-887-5187-832-6018-12-52-712 363-803 425a17524.398 17524.398 0 0 0-2352 2013 21033.802 21033.802 0 0 0-2247 2691l-1 4v-4c-1546.76 2189.3-2643.98 4663.8-3228 7280-11 53-866 3785-444 5720Z"/><path fill="#00d5fd" fill-rule="nonzero" d="M34121 16760c877.7 860.2 1629.8 1839.8 2234 2910 132 100 256 199 361 296 5455 5020 2597 12120 2384 12625 4430-3646 7266-9038 6412-14604-2720-6773-7334-9504-11101-15450l-567-920a7316.549 7316.549 0 0 1-265-498c-156.1-301.335-276.6-619.812-359-949 1.3-32.48-22.8-60.898-55-65a82.007 82.007 0 0 0-45 0l-29 17c-931 443-6449 9169 1030 16638Z"/><path fill="#00c7fa" fill-rule="nonzero" d="m24866 13465 3185 202 1935 688 1612 633 1857 1326 1750 1844 607 1147c82 50 250 158 393 255 53 37 100 74 150 110-603.9-1070.1-1355.6-2049.8-2233-2910C26642 9290 32160 563 33090 120l10-14c-6044 3536-8095 10076-8283 13349v18l49-8Z"/><path fill="#0099ef" fill-rule="nonzero" d="M17074 15204c167.7 108 334 218 499 330-548.6-1916-572-3944.8-68-5873-2471 1124-4394 2901-5791 4470 115-3 3605-66 5360 1073Z"/><path fill="#65dffd" fill-rule="nonzero" d="M14832 27845s1111-4134 7953-4134c740 0 2854-2061 2893-2659 0 0-4375 1835-9033-354-5030-2364-8845 354-8845 354s1450 3581 5700 3581c-445 3928 1634 8509 6668 10912l334 164c-2940-1517-5366-4383-5670-7864Z"/><path fill="#40bff6" fill-rule="nonzero" d="M36716 19966c-115.4-104.2-235.9-202.6-361-295-49-37-97-74-150-110-1285-902-3585-1792-5801-1407 8654 4321 6330 19202-5662 18640-1067.6-43.5-2122.6-246.8-3130-603-238.4-89.5-474.1-185.9-707-289-136.6-61-271.6-125.3-405-193l16 10c1673 1140 9935 3925 18570-3097l13-31c214-505 3072-7605-2383-12625Z"/><path fill="url(#a)" fill-rule="nonzero" d="m2376 28760-20-69a22078.756 22078.756 0 0 1-560-2450c-184-843-125-2027 0-3099-93 557-151 1123-220 2407 0 40-3 81-3 122 0 10502 6747 19429 16147 22697C9572 45248 3535 37780 2376 28760Z"/><defs><linearGradient id="a" x1="0" x2="1" y1="0" y2="0" gradientTransform="rotate(91.329 -6197.781 16315.306) scale(34821.26)" gradientUnits="userSpaceOnUse"><stop offset="0" stop-color="#0df" stop-opacity=".4"/><stop offset="1" stop-color="#0df" stop-opacity="0"/></linearGradient></defs></svg>