<svg xmlns="http://www.w3.org/2000/svg" xml:space="preserve" style="fill-rule:evenodd;clip-rule:evenodd;stroke-linecap:round;stroke-linejoin:round" viewBox="0 0 184 184"><path d="M-83.357 737.885c-80.829-7.138-155.815-60.169-191.591-135.496-15.81-33.288-22.89-65.258-22.89-103.356s7.08-70.069 22.89-103.356c23.496-49.472 64.264-90.239 113.735-113.735 33.287-15.81 65.258-22.89 103.356-22.89s70.069 7.08 103.356 22.89c49.471 23.496 90.239 64.263 113.735 113.735 15.809 33.287 22.89 65.258 22.89 103.356s-7.081 70.068-22.89 103.356C135.738 651.86 94.97 692.628 45.499 716.123c-39.965 18.981-81.297 25.962-128.856 21.762Zm59.144-89.232c53.12-6.647 95.166-31.395 121.499-71.515 6.184-9.422 6.169-10.141-.113-5.422-24.7 18.555-67.598 33.8-110.879 39.404-60.777 7.869-124.168-1.473-172.776-25.462-12.65-6.243-22.291-12.139-28.979-17.721-1.914-1.598-3.69-2.904-3.948-2.904-1.458 0 6.601 13.775 12.945 22.125 24.257 31.926 60.255 51.946 107.089 59.557 7.93 1.288 17.927 2.364 31.393 3.378 7.645.576 34.799-.318 43.769-1.44Zm-5.698-77.237c40.539-3.576 77.274-13.218 111.043-29.147 15.382-7.256 31.973-17.806 40.104-25.503 3.004-2.845 3.941-5.888 6.842-22.233 1.208-6.807 2.901-14.314 3.763-16.684 2.821-7.757 3.925-30.446 1.938-39.826-1.822-8.598-9.453-20.021-15.579-23.32l-2.613-1.407-4.597 3.537c-2.529 1.946-4.597 3.667-4.597 3.826 0 .158.658 1.404 1.462 2.768 4.184 7.099 5.02 20.627 1.889 30.54-7.423 23.496-38.449 45.137-81.75 57.019-27.368 7.511-51.291 10.576-82.969 10.631-30.355.053-52.486-2.516-78.36-9.096-55.699-14.165-89.593-41.182-89.506-71.347.022-7.96 2.359-13.842 10.134-25.515 3.936-5.909 7.657-12.591 9.409-16.897 3.318-8.154 3.485-8.071-5.465-2.693-15.678 9.421-28.95 22.068-34.256 32.644-3.774 7.519-4.588 11.622-4.588 23.118 0 12.53 1.088 19.668 3.823 25.077 1.898 3.751 2.449 6.128 3.313 14.288 2.168 20.462 1.831 19.429 8.437 25.865 24.764 24.129 83.445 47.101 135.927 53.211 21.249 2.475 46.224 2.906 66.196 1.144Z" style="fill:#d3b542;fill-rule:nonzero" transform="translate(114.016 -99.168) scale(.38281)"/><path d="M-74.357 738.596c-1.444-.164-6.338-.662-10.875-1.107-11.267-1.103-28.693-4.633-40.875-8.279-29.416-8.806-55.245-22.15-80.25-41.463-10.133-7.827-32.388-30.081-40.214-40.214-27.316-35.368-43.677-74.41-49.538-118.213-1.812-13.538-1.812-47.037 0-60.575 5.861-43.802 22.222-82.845 49.538-118.212 7.826-10.133 30.081-32.388 40.214-40.214 35.367-27.316 74.41-43.678 118.212-49.539 13.539-1.811 47.037-1.811 60.575 0 43.803 5.861 82.846 22.223 118.213 49.539 10.133 7.826 32.388 30.081 40.214 40.214 27.316 35.367 43.677 74.41 49.538 118.212 1.812 13.538 1.812 47.037 0 60.575-5.861 43.803-22.222 82.845-49.538 118.213-7.826 10.133-30.081 32.387-40.214 40.214-35.265 27.237-74.917 43.877-117.818 49.445-8.739 1.134-41.091 2.096-47.182 1.404Zm55.875-90.271c20.881-3.308 37.547-8.462 54.839-16.96 21.033-10.336 39.672-25.495 54.078-43.98 5.883-7.549 13.362-19.198 12.732-19.829-.238-.237-2.429 1.105-4.87 2.983-23.633 18.186-63.923 33.065-106.654 39.388-32.782 4.851-69.977 4.59-101.208-.712-43.157-7.326-82.073-22.613-105.417-41.412-2.888-2.325-5.354-3.925-5.481-3.555-.33.959 2.385 6.068 7.147 13.45 25.481 39.5 64.125 62.277 119.084 70.193 14.844 2.138 22.206 2.525 43.875 2.31 17.674-.176 23.193-.501 31.875-1.876Zm-22.5-75.812c31.17-1.667 60.782-7.179 88.875-16.543 31.556-10.519 61.12-26.371 73.569-39.445 3.805-3.996 4.501-6.335 7.448-24.992.749-4.744 1.937-9.975 2.639-11.625 2.269-5.328 3.291-13.782 3.318-27.446.028-14.474-.637-17.924-4.845-25.127-2.518-4.308-9.65-12.015-12.468-13.473-1.846-.955-2.242-.81-6.563 2.401-2.529 1.879-4.598 3.783-4.598 4.231 0 .449.683 2.226 1.518 3.951 1.849 3.82 3.706 12.256 3.706 16.838 0 30.351-35.732 58-92.599 71.651-70.567 16.94-155.155 8.06-204.8-21.499-23.717-14.122-36.57-31.606-36.592-49.777-.011-9.449 1.397-12.941 11.039-27.375 5.826-8.721 12.645-23.754 10.393-22.911-3.399 1.273-12.971 7.275-19.907 12.483-12.805 9.615-21.852 20.568-25.202 30.511-1.338 3.972-1.556 6.447-1.556 17.666 0 14.968.632 19.344 3.7 25.626 1.767 3.616 2.364 6.207 3.041 13.195.463 4.782 1.287 11.477 1.832 14.876.914 5.708 1.24 6.441 4.271 9.587 1.804 1.874 6.603 5.901 10.664 8.949 34.763 26.098 93.494 45.214 148.065 48.192 16.268.888 19.401.893 35.052.056ZM73.524 415.125c23.531-13.396 37.958-23.841 43.374-31.405 1.647-2.3 2.995-4.91 2.995-5.799 0-8.524-47.022-36.493-57.007-33.908-2.37.613-6.13 6.423-11.508 17.78-3.381 7.14-11.735 28.147-11.735 29.509 0 .213 1.701 1.313 3.78 2.444 3.328 1.812 4.091 2.713 6.379 7.534 2.121 4.469 3.132 5.748 5.5 6.956 3.213 1.639 6.405 5.081 8.196 8.838.645 1.352 1.422 2.459 1.728 2.459.305 0 4.039-1.984 8.298-4.408Z" style="fill:#578b34;fill-rule:nonzero" transform="translate(114.016 -99.168) scale(.38281)"/><path d="M-71.357 738.295c-13.977-1.102-31.549-3.954-44.625-7.243-68.139-17.138-125.129-63.108-155.989-125.825-12.167-24.727-19.295-47.561-22.496-72.069-.647-4.95-1.563-10.688-2.037-12.75-1.147-4.996-1.147-37.755 0-42.75.474-2.063 1.39-7.8 2.037-12.75 3.201-24.508 10.329-47.342 22.496-72.07 23.213-47.178 60.742-84.706 107.919-107.92 24.728-12.167 47.562-19.294 72.07-22.495 4.95-.647 10.687-1.563 12.75-2.037 4.995-1.147 37.754-1.147 42.75 0 2.062.474 7.8 1.39 12.75 2.037 24.508 3.201 47.342 10.328 72.069 22.495 47.178 23.214 84.706 60.742 107.92 107.92 12.167 24.728 19.295 47.562 22.496 72.07.646 4.95 1.563 10.687 2.036 12.75.518 2.253.862 10.785.862 21.375 0 10.589-.344 19.122-.862 21.375-.473 2.062-1.39 7.8-2.036 12.75-3.201 24.508-10.329 47.342-22.496 72.069-23.214 47.178-60.742 84.706-107.92 107.92C23.61 725.314.776 732.441-23.732 735.643c-4.95.646-10.519 1.492-12.375 1.879-4.664.973-26.613 1.454-35.25.773Zm30.972-87.031c14.887-.826 24.496-2.103 37.278-4.955 43.44-9.695 78.856-33.836 102.257-69.703 7.945-12.178 8.077-14.214.54-8.301-22.67 17.782-60.15 32.572-99.797 39.381-21.594 3.708-28.404 4.214-56.625 4.207-21.12-.005-29.23-.289-37.239-1.304-19.916-2.524-42.242-7.305-58.761-12.583-25.006-7.991-50.599-21.09-63.865-32.688-4.236-3.703-6.26-4.842-6.26-3.522 0 .944 5.368 11.052 8.49 15.987 28.65 45.283 78.023 70.182 145.635 73.443 6.6.318 12.675.623 13.5.678.825.055 7.506-.233 14.847-.64Zm4.653-78.004c35.943-2.623 69.304-10.107 100.875-22.629 23.458-9.304 47.405-23.292 57.229-33.427 3.333-3.439 4.218-6.309 6.893-22.356 1-5.998 2.683-13.41 3.739-16.471 1.515-4.388 2.085-8.069 2.693-17.393 1.162-17.823.136-25.167-4.725-33.808-2.776-4.935-9.36-12.135-12.782-13.978l-2.567-1.383-4.428 3.21c-6.313 4.576-6.51 4.91-4.837 8.189 2.657 5.208 3.991 11.42 3.957 18.425-.061 12.596-4.43 21.769-15.922 33.433-43.226 43.871-158.824 59.015-242.93 31.825-38.59-12.475-64.258-31.774-71.054-53.424-1.688-5.378-1.897-7.137-1.604-13.5.414-8.984 1.758-12.234 10.22-24.725 3.294-4.862 7.044-11.499 8.334-14.749 1.289-3.249 2.836-6.858 3.436-8.02 1.72-3.326.113-3.336-5.847-.038-12.606 6.976-25.836 17.513-32.818 26.137-9.364 11.566-11.796 20.167-10.915 38.604.535 11.218 1.731 17.054 4.48 21.856 1.318 2.302 1.912 4.79 2.267 9.495.833 11.001 2.752 21.99 4.281 24.501 2.001 3.286 12.295 11.849 21.275 17.695 46.476 30.258 118.074 47.105 180.75 42.531Zm-1.125-71.245c34.827-2.142 65.859-9.23 89.396-20.42 11.859-5.638 18.645-10.275 26.556-18.145 8.278-8.236 11.438-14.035 11.983-21.993.385-5.618-1.442-12.393-3.435-12.739-.904-.157-17.986 9.167-30.54 16.668-1.328.794-2.602 1.255-2.831 1.026-.229-.23-.876-3.251-1.437-6.715-1.419-8.77-2.697-11.428-6.891-14.336-6.476-4.49-7.795-5.933-10.43-11.411-2.316-4.815-2.976-5.579-5.765-6.675-5.178-2.034-11.106-5.951-11.106-7.338 0-1.433 4.772-15.036 7.786-22.194 1.08-2.566 1.964-4.8 1.964-4.965 0-.731-16.62-12.622-19.075-13.648-3.19-1.333-14.426-2.544-24.05-2.593-9.46-.048-16.008-1.121-25.125-4.118-12.596-4.14-13.265-4.212-24.285-2.595-8.685 1.275-10.26 1.74-13.941 4.112-9.772 6.299-17.549 8.562-29.493 8.584-4.04.008-9.915.544-13.056 1.192-10.199 2.107-13.178 3.634-20.58 10.543-9.374 8.752-15.526 12.877-26.694 17.901-11.768 5.294-13.081 6.204-14.801 10.27-3.96 9.36-5.846 12.89-10.413 19.487-7.327 10.582-9.047 14.703-8.463 20.284 1.439 13.768 16.321 28.91 38.87 39.546 32.685 15.417 80.238 23.077 125.856 20.272Zm123.245-93.309c18.87-11.536 30.016-20.72 33.368-27.494 1.748-3.534 1.521-4.818-1.498-8.481-7.43-9.014-36.8-26.35-49.716-29.345-5.977-1.386-7.166-.908-10.758 4.323-5.527 8.051-18.891 38.888-18.891 43.592 0 .626 1.686 2.056 3.747 3.178 3.271 1.78 4.069 2.717 6.28 7.375 2.142 4.512 3.127 5.706 6.373 7.723 2.394 1.489 4.678 3.741 6.068 5.984 3.685 5.946 3.28 5.822 8.886 2.721 2.762-1.528 10.025-5.837 16.141-9.576Z" style="fill:#030403;fill-rule:nonzero" transform="translate(114.016 -99.168) scale(.38281)"/><path d="M774.254 1918.02c-9.45-.64-36.079-3.07-59.177-5.42-196.149-19.94-411.836-100.01-520.413-193.2-29.788-25.57-33.114-33.19-39.977-91.64-4.392-37.4-7.401-51.9-14.438-69.58-16.363-41.12-19.16-119.37-5.686-159.09 13.776-40.6 57.45-89.53 114.461-128.24 30.269-20.55 48.152-30.92 50.042-29.03 2.034 2.03-17.942 44.56-30.752 65.47-7.16 11.68-18.37 29.96-24.91 40.62-20.075 32.71-24.245 45.76-24.462 76.55-.355 50.2 16.778 87.02 61.371 131.88 71.734 72.17 196.051 126.65 355.065 155.61 52.815 9.61 85.698 12.99 155.377 15.96 102.778 4.38 208.638-2.46 291.315-18.82 217.99-43.13 368.39-135.85 396.64-244.54 7.49-28.81 4.97-76.17-5.23-98.42-4.24-9.25-7.71-17.79-7.71-18.99 0-1.19 7.13-7.55 15.84-14.13 10.7-8.08 17.59-11.41 21.22-10.26 10.62 3.37 37.19 33.82 48.47 55.55 13.68 26.36 17.55 45.71 17.55 87.56 0 38.27-4.01 73.29-11.51 100.34-3.06 11.02-10.08 42.95-15.61 70.95-5.52 28-11.94 54.58-14.25 59.05-5.99 11.58-29.77 32.14-61.52 53.19-126.02 83.54-300.75 141.83-489.835 163.4-37.25 4.25-166.492 7.59-201.871 5.23Z" style="fill:#fff;fill-opacity:.58;fill-rule:nonzero;stroke:#fff;stroke-width:10.71px" transform="matrix(.10129 0 0 .10129 6.555 -74.558)"/><path d="M765.663 2210.16c-4.724-.66-25.341-3.21-45.814-5.67-219.666-26.36-386.116-127.05-476.724-288.37-5.126-9.13-8.784-17.13-8.129-17.79.655-.65 11.274 6.36 23.597 15.59 23.908 17.9 81.787 51.27 114.781 66.16 101.884 46 210.839 75.43 335.021 90.51 61.12 7.42 219.689 7.46 279.184.07 171.721-21.32 330.571-74.54 430.471-144.24 12.34-8.61 23.1-14.98 23.91-14.17 2.04 2.04-30.77 50.44-50.75 74.87-22.05 26.97-73.71 76.62-100.11 96.23-86.03 63.87-179.56 101.31-304.663 121.94-24.986 4.12-198.795 7.96-220.774 4.87h0Z" style="fill:#fff;fill-opacity:.58;fill-rule:nonzero;stroke:#fff;stroke-width:10.71px" transform="matrix(.10129 0 0 .10129 6.555 -74.558)"/></svg>