<svg xmlns="http://www.w3.org/2000/svg" xml:space="preserve" fill-rule="evenodd" stroke-linejoin="round" clip-rule="evenodd" viewBox="0 0 350 400"><path fill="#707e7e" stroke="#4d4d4d" stroke-width="5" d="M125.25 14.71 72.614 172.1l26.548 7.888 41.844-160.59s-4.369-8.63-6.732-9.333c-2.364-.702-9.024 4.651-9.024 4.651v-.006Z"/><path fill="url(#a)" fill-rule="nonzero" d="M66.04 146.9c-11.239 0-20.481 8.435-21.506 19.622l.226-1.274-.663 3.686.233-1.304-.67 3.679.225-1.274-.663 3.663.226-1.274-.67 3.686.225-1.274-.67 3.671.226-1.258-.664 3.648.226-1.274-.67 3.656.226-1.244-.664 3.634.219-1.237-.656 3.641.226-1.259-.663 3.649.218-1.236-.663 3.625.218-1.22-.656 3.618.226-1.244-.663 3.626.218-1.23-.656 3.627.211-1.222-.655 3.611.218-1.213-.656 3.633.211-1.206-.656 3.596.219-1.214-.656 3.61.218-1.205-.656 3.595.211-1.19-.655 3.595.21-1.206s-.648 3.58-.648 3.588c0-.006.211-1.183.211-1.183l-.648 3.595.211-1.19-.648 3.565.211-1.176s-.648 3.58-.648 3.588c0-.006.21-1.183.21-1.183l-.648 3.588.212-1.184-.649 3.574.204-1.176-.641 3.558.203-1.154-.64 3.558.202-1.176-.64 3.558.203-1.153-.64 3.55.202-1.153-.648 3.558.203-1.153-.64 3.543.203-1.139-.64 3.543.202-1.145-.64 3.542.203-1.145-.64 3.543.202-1.139-.64 3.528.196-1.13-.641 3.52.196-1.123-.64 3.52.195-1.116-.633 3.52.196-1.123-.633 3.528.196-1.123-.671 3.49.196-1.123-.633 3.505.196-1.1-.634 3.505.196-1.108-.633 3.497.196-1.1-.64 3.505.195-1.1-.633 3.49.196-1.108-.64 3.52.195-1.1-.633 3.49.188-1.094-.625 3.49.188-1.092s-.626 3.46-.626 3.467c0-.006.188-1.078.188-1.078l-.633 3.49.188-1.093-.625 3.483.188-1.093-.633 3.483.188-1.07-.626 3.46.188-1.079-.625 3.475.188-1.078-.626 3.46.188-1.063-.626 3.445.181-1.055-.625 3.46.18-1.063-.625 3.46.18-1.055-.625 3.437.181-1.04a24.97 24.97 0 0 0-.754 5.993v44.483c0 13.644 11.096 24.733 24.733 24.733h261.17c13.644 0 24.733-11.096 24.733-24.733v-44.483c0-1.983-.256-4.003-.769-6.016l.189 1.078-.619-3.445.181 1.056-.633-3.46.188 1.055-.633-3.468.188 1.078-.625-3.437.18 1.055-.633-3.475.188 1.1-.618-3.467c.181 1.07-.445-2.397-.445-2.397v-.006l.181 1.055-.633-3.46.188 1.101-.626-3.483.189 1.078-.634-3.49.189 1.086-.634-3.475.189 1.1-.626-3.475.18 1.086-.625-3.49.181 1.07-.626-3.468.188 1.093-.633-3.482.188 1.093-.64-3.506.196 1.109-.634-3.498.189 1.115-.634-3.52.196 1.116-.64-3.52.196 1.107-.634-3.497.189 1.13-.649-3.565.204 1.168-.634-3.528.189 1.093-.626-3.482.188 1.093-.64-3.505.195 1.13-.64-3.527.196 1.13-.641-3.535.203 1.146-.656-3.566.211 1.168-.64-3.542.195 1.115s-.64-3.513-.64-3.52c0 .006.196 1.138.196 1.138l-.641-3.543.196 1.139-.648-3.55.203 1.167-.648-3.58.21 1.198-.648-3.58.204 1.168-.649-3.565.204 1.183-.649-3.596.204 1.2-.52-3.582.203 1.154-.656-3.573.211 1.176-.663-3.596.218 1.251-.648-3.618.203 1.183-.656-3.595.219 1.213-.656-3.595.21 1.198-.655-3.595.211 1.19-.656-3.603c0 .006.211 1.199.211 1.199l-.655-3.603.218 1.251-.664-3.633.22 1.213-.656-3.61.21 1.213-.663-3.61.219 1.236-.664-3.641.219 1.236-.656-3.618.218 1.228-.663-3.625.218 1.236-.671-3.649.226 1.26-.656-3.634.211 1.221-.663-3.626c0 .006.226 1.251.226 1.251l-.678-3.67.233 1.288-.663-3.656.218 1.26s-.663-3.664-.67-3.672c.005.006.225 1.267.225 1.267s-.663-3.649-.663-3.664c0 .018.218 1.259.218 1.259l-.663-3.649.226 1.274-.595-3.716.226 1.29-.678-3.695.233 1.29c-1.025-11.188-10.267-19.623-21.514-19.623H66.023l.017.007Z"/><path fill="url(#b)" fill-rule="nonzero" d="M320.16 310.96a17.31 17.31 0 0 0-.445-2.39 15.733 15.733 0 0 0-.445-2.397 16.005 16.005 0 0 0-.445-2.397 16.72 16.72 0 0 0-.437-2.382 15.645 15.645 0 0 0-.445-2.39 15.733 15.733 0 0 0-.445-2.397 16.95 16.95 0 0 0-.437-2.397 17.642 17.642 0 0 0-.445-2.39 16.72 16.72 0 0 0-.445-2.389 15.733 15.733 0 0 0-.445-2.397 15.524 15.524 0 0 0-.445-2.39 15.61 15.61 0 0 0-.444-2.397 15.749 15.749 0 0 0-.437-2.39c-.09-.821-.242-1.62-.445-2.396a15.645 15.645 0 0 0-.445-2.39 15.614 15.614 0 0 0-.446-2.397 15.522 15.522 0 0 0-.444-2.39c-.08-.81-.226-1.611-.437-2.397a15.645 15.645 0 0 0-.445-2.39 15.72 15.72 0 0 0-.445-2.396 14.146 14.146 0 0 0-.445-2.398c-.08-.81-.226-1.611-.437-2.397a15.61 15.61 0 0 0-.444-2.397 15.645 15.645 0 0 0-.445-2.39 15.614 15.614 0 0 0-.446-2.397 15.505 15.505 0 0 0-.437-2.39 15.597 15.597 0 0 0-.444-2.396 16.005 16.005 0 0 0-.445-2.397 15.012 15.012 0 0 0-.445-2.397 15.024 15.024 0 0 0-.445-2.398 14.69 14.69 0 0 0-.445-2.39 13.93 13.93 0 0 0-.437-2.389 14.901 14.901 0 0 0-.445-2.397 14.901 14.901 0 0 0-.445-2.397 14.901 14.901 0 0 0-.445-2.397 14.668 14.668 0 0 0-.437-2.397 14.995 14.995 0 0 0-.444-2.405 14.797 14.797 0 0 0-.445-2.39 13.93 13.93 0 0 0-.445-2.396 14.804 14.804 0 0 0-.445-2.398 14.668 14.668 0 0 0-.437-2.397 14.772 14.772 0 0 0-.445-2.397 14.772 14.772 0 0 0-.445-2.397 14.69 14.69 0 0 0-.445-2.39 14.153 14.153 0 0 0-.445-2.397 14.136 14.136 0 0 0-.437-2.397 14.69 14.69 0 0 0-.445-2.39 13.93 13.93 0 0 0-.445-2.396 14.053 14.053 0 0 0-.444-2.397 14.23 14.23 0 0 0-.438-2.405 14.69 14.69 0 0 0-.445-2.39 14.772 14.772 0 0 0-.445-2.397 13.94 13.94 0 0 0-.445-2.397 13.37 13.37 0 0 0-.444-2.397 14.038 14.038 0 0 0-.437-2.397 13.94 13.94 0 0 0-.445-2.397 14.226 14.226 0 0 0-.445-2.405 14.055 14.055 0 0 0-.445-2.39 13.372 13.372 0 0 0-.445-2.397 13.372 13.372 0 0 0-.445-2.397c-.648-7.176-6.679-12.792-14.021-12.792h-213.5c-7.342 0-13.365 5.616-14.021 12.792a13.846 13.846 0 0 0-.437 2.397 14.772 14.772 0 0 0-.445 2.397 13.943 13.943 0 0 0-.438 2.39c-.21.724-.37 1.523-.445 2.344a14.589 14.589 0 0 0-.444 2.398 14.648 14.648 0 0 0-.437 2.397 14.56 14.56 0 0 0-.445 2.397 14.648 14.648 0 0 0-.437 2.397c-.211.786-.36 1.588-.445 2.397-.21.784-.359 1.583-.445 2.39a14.968 14.968 0 0 0-.437 2.404c-.211.786-.36 1.588-.445 2.397a14.65 14.65 0 0 0-.438 2.397c-.21.784-.359 1.583-.445 2.39a14.883 14.883 0 0 0-.437 2.397 15.854 15.854 0 0 0-.444 2.397 14.8 14.8 0 0 0-.437 2.39c-.21.786-.359 1.588-.445 2.397-.21.786-.359 1.588-.445 2.397a14.883 14.883 0 0 0-.437 2.397c-.181.777-.34 1.576-.415 2.397a14.883 14.883 0 0 0-.437 2.397c-.21.784-.359 1.583-.445 2.39-.21.789-.359 1.593-.445 2.405a14.648 14.648 0 0 0-.437 2.397c-.21.786-.359 1.588-.445 2.397a15.61 15.61 0 0 0-.43 2.39 15.854 15.854 0 0 0-.444 2.397c-.211.784-.36 1.583-.446 2.39-.204.785-.35 1.583-.437 2.389a15.982 15.982 0 0 0-.445 2.397 15.86 15.86 0 0 0-.437 2.397 15.982 15.982 0 0 0-.445 2.397c-.196.784-.362 1.575-.437 2.397-.21.784-.359 1.583-.445 2.39-.204.787-.35 1.588-.438 2.397-.21.784-.359 1.583-.444 2.39a16.676 16.676 0 0 0-.445 2.396c-.18.792-.339 1.591-.422 2.413a15.982 15.982 0 0 0-.445 2.397 16.924 16.924 0 0 0-.437 2.397 17.017 17.017 0 0 0-.445 2.39 16.803 16.803 0 0 0-.445 2.397c-.204.785-.35 1.584-.437 2.39a16.815 16.815 0 0 0-.445 2.396 16.854 16.854 0 0 0-.437 2.39 16.803 16.803 0 0 0-.445 2.397 16.854 16.854 0 0 0-.437 2.39 17.899 17.899 0 0 0-.445 2.397 17.957 17.957 0 0 0-.445 2.39 17.884 17.884 0 0 0-.445 2.396 16.854 16.854 0 0 0-.437 2.39 17.957 17.957 0 0 0-.445 2.39 16.95 16.95 0 0 0-.437 2.397c-.204.787-.35 1.588-.437 2.397a17.957 17.957 0 0 0-.445 2.39c-.203.782-.35 1.578-.438 2.381-.202.788-.351 1.59-.445 2.398a16.924 16.924 0 0 0-.437 2.397 17.613 17.613 0 0 0-.445 2.39 17.339 17.339 0 0 0-.528 4.175v44.483c0 9.514 7.712 17.217 17.217 17.217h261.17c9.514 0 17.217-7.704 17.217-17.217v-44.483c.03-1.394-.165-2.789-.497-4.123h.004Z"/><path fill="#d1d1dd" fill-rule="nonzero" d="M82.29 154.41 32.84 308.5c94.084-11.285 185.65-11.337 278.35-6.226l-47.596-147.87-181.304.006Z"/><path fill="#eaeaea" fill-rule="nonzero" d="M319.728 308.552a15.733 15.733 0 0 0-.445-2.397 16.005 16.005 0 0 0-.445-2.397c-.087-.804-.233-1.6-.437-2.382a15.645 15.645 0 0 0-.445-2.39 15.733 15.733 0 0 0-.445-2.397 16.975 16.975 0 0 0-.437-2.397 17.957 17.957 0 0 0-.445-2.39 16.734 16.734 0 0 0-.445-2.39 15.72 15.72 0 0 0-.445-2.396 15.645 15.645 0 0 0-.445-2.39 15.733 15.733 0 0 0-.445-2.397 15.749 15.749 0 0 0-.437-2.39c-.09-.821-.241-1.62-.445-2.397a15.765 15.765 0 0 0-.444-2.39 15.72 15.72 0 0 0-.445-2.396 15.526 15.526 0 0 0-.446-2.39c-.08-.81-.226-1.611-.437-2.397a15.645 15.645 0 0 0-.445-2.39 15.854 15.854 0 0 0-.444-2.397 13.622 13.622 0 0 0-.34-1.945 17.148 17.148 0 0 0-7.545-1.756H42.311c-2.707 0-5.27.64-7.546 1.756-.15.634-.279 1.282-.34 1.945a16.78 16.78 0 0 0-.436 2.397 17.017 17.017 0 0 0-.445 2.39 16.803 16.803 0 0 0-.445 2.397 16.578 16.578 0 0 0-.438 2.39 16.803 16.803 0 0 0-.445 2.397 16.854 16.854 0 0 0-.437 2.39 16.815 16.815 0 0 0-.445 2.396 16.854 16.854 0 0 0-.437 2.39 17.899 17.899 0 0 0-.445 2.397 17.798 17.798 0 0 0-.445 2.39 18.058 18.058 0 0 0-.445 2.397 16.854 16.854 0 0 0-.437 2.39c-.202.785-.35 1.584-.445 2.389a16.975 16.975 0 0 0-.437 2.397 16.924 16.924 0 0 0-.437 2.397c-.202.786-.35 1.584-.445 2.39a16.89 16.89 0 0 0-.438 2.382c-.202.788-.35 1.589-.444 2.397-.204.787-.35 1.588-.437 2.397a17.613 17.613 0 0 0-.445 2.39 17.231 17.231 0 0 0-.527 4.168v5.918c0 9.513 7.711 17.217 17.217 17.217h261.17c9.513 0 17.217-7.704 17.217-17.217v-5.91c0-1.44-.196-2.834-.528-4.176-.068-.822-.226-1.613-.414-2.39h-.004Z"/><path fill="url(#c)" fill-rule="nonzero" d="M25.09 359.59c0 9.513 7.712 17.217 17.217 17.217h261.17c9.513 0 17.217-7.704 17.217-17.217v-44.483c0-9.513-7.704-17.217-17.217-17.217H42.307c-9.506 0-17.217 7.704-17.217 17.217v44.483Z"/><path fill="#d7d7d7" fill-rule="nonzero" d="M42.31 306.93c-4.523 0-8.201 3.679-8.201 8.201v44.484c0 4.522 3.678 8.201 8.201 8.201h261.17c4.523 0 8.201-3.679 8.201-8.201v-44.483c0-4.523-3.678-8.202-8.201-8.202H42.31Z"/><path fill="#828282" fill-rule="nonzero" d="M300.25 310.18c4.404 0 7.985 3.372 7.985 7.518v40.776c0 4.146-3.581 7.518-7.985 7.518H45.96c-4.404 0-7.985-3.372-7.985-7.518v-40.776c0-4.146 3.581-7.518 7.985-7.518h254.29Z"/><path fill="url(#d)" fill-rule="nonzero" d="M286.77 352.69c-3.098 0-5.714 1.87-5.714 4.086 0 2.223 2.616 4.093 5.714 4.093h6.068c3.09 0 5.707-1.87 5.707-4.093 0-2.217-2.616-4.086-5.707-4.086h-6.068Z"/><path fill="url(#e)" stroke="#dedede" stroke-linejoin="miter" stroke-opacity=".98" stroke-width="2.5" d="M61.28 317.77c-1.5 0-2.71 1.21-2.71 2.708v.675c0 .688-.539 1.274-1.276 1.274h-3.668c-1.499 0-2.71 1.65-2.71 3.148v15.12a2.72 2.72 0 0 0 2.707 2.707h20.094c1.5 0 2.71-1.21 2.71-2.708v-15.12c0-1.497-1.21-3.147-2.71-3.147H70.05a1.216 1.216 0 0 1-1.276-1.208v-.742a2.72 2.72 0 0 0-2.707-2.707H61.28Z"/><path fill="none" stroke="#e4e40d" stroke-linecap="round" stroke-linejoin="miter" stroke-width="3" d="M56.64 337.59v-4.692m4.69 4.692v-4.692m4.69 4.692v-4.692m4.69 4.692v-4.692"/><path fill="url(#f)" fill-rule="nonzero" d="M62.15 350.59c-1.56 0-2.877 1.675-2.877 3.661 0 1.993 1.317 3.668 2.877 3.668h3.055c1.556 0 2.873-1.675 2.873-3.668 0-1.986-1.317-3.661-2.873-3.661H62.15Z"/><path fill="url(#g)" stroke="#dedede" stroke-linejoin="miter" stroke-opacity=".98" stroke-width="2.5" d="M61.28 317.77c-1.5 0-2.71 1.21-2.71 2.708v.675c0 .688-.539 1.274-1.276 1.274h-3.668c-1.499 0-2.71 1.65-2.71 3.148v15.12a2.72 2.72 0 0 0 2.707 2.707h20.094c1.5 0 2.71-1.21 2.71-2.708v-15.12c0-1.497-1.21-3.147-2.71-3.147H70.05a1.216 1.216 0 0 1-1.276-1.208v-.742a2.72 2.72 0 0 0-2.707-2.707H61.28Z" transform="translate(32.6)"/><path fill="none" stroke="#e4e40d" stroke-linecap="round" stroke-linejoin="miter" stroke-width="3" d="M89.24 337.59v-4.692m4.69 4.692v-4.692m4.69 4.692v-4.692m4.69 4.692v-4.692"/><path fill="url(#h)" fill-rule="nonzero" d="M62.15 350.59c-1.56 0-2.877 1.675-2.877 3.661 0 1.993 1.317 3.668 2.877 3.668h3.055c1.556 0 2.873-1.675 2.873-3.668 0-1.986-1.317-3.661-2.873-3.661H62.15Z" transform="translate(32.6)"/><path fill="url(#i)" stroke="#dedede" stroke-linejoin="miter" stroke-opacity=".98" stroke-width="2.5" d="M61.28 317.77c-1.5 0-2.71 1.21-2.71 2.708v.675c0 .688-.539 1.274-1.276 1.274h-3.668c-1.499 0-2.71 1.65-2.71 3.148v15.12a2.72 2.72 0 0 0 2.707 2.707h20.094c1.5 0 2.71-1.21 2.71-2.708v-15.12c0-1.497-1.21-3.147-2.71-3.147H70.05a1.216 1.216 0 0 1-1.276-1.208v-.742a2.72 2.72 0 0 0-2.707-2.707H61.28Z" transform="translate(65.21)"/><path fill="none" stroke="#e4e40d" stroke-linecap="round" stroke-linejoin="miter" stroke-width="3" d="M121.85 337.59v-4.692m4.69 4.692v-4.692m4.69 4.692v-4.692m4.69 4.692v-4.692"/><path fill="url(#j)" fill-rule="nonzero" d="M62.15 350.59c-1.56 0-2.877 1.675-2.877 3.661 0 1.993 1.317 3.668 2.877 3.668h3.055c1.556 0 2.873-1.675 2.873-3.668 0-1.986-1.317-3.661-2.873-3.661H62.15Z" transform="translate(65.21)"/><path fill="url(#k)" stroke="#dedede" stroke-linejoin="miter" stroke-opacity=".98" stroke-width="2.5" d="M61.28 317.77c-1.5 0-2.71 1.21-2.71 2.708v.675c0 .688-.539 1.274-1.276 1.274h-3.668c-1.499 0-2.71 1.65-2.71 3.148v15.12a2.72 2.72 0 0 0 2.707 2.707h20.094c1.5 0 2.71-1.21 2.71-2.708v-15.12c0-1.497-1.21-3.147-2.71-3.147H70.05a1.216 1.216 0 0 1-1.276-1.208v-.742a2.72 2.72 0 0 0-2.707-2.707H61.28Z" transform="translate(97.81)"/><path fill="none" stroke="#e4e40d" stroke-linecap="round" stroke-linejoin="miter" stroke-width="3" d="M154.45 337.59v-4.692m4.69 4.692v-4.692m4.69 4.692v-4.692m4.69 4.692v-4.692"/><path fill="url(#l)" fill-rule="nonzero" d="M62.15 350.59c-1.56 0-2.877 1.675-2.877 3.661 0 1.993 1.317 3.668 2.877 3.668h3.055c1.556 0 2.873-1.675 2.873-3.668 0-1.986-1.317-3.661-2.873-3.661H62.15Z" transform="translate(97.81)"/><defs><linearGradient id="a" x1="0" x2="1" y1="0" y2="0" gradientTransform="rotate(-90 276.069 103.181) scale(227.216)" gradientUnits="userSpaceOnUse"><stop offset="0" stop-color="#7d7d99"/><stop offset="1" stop-color="#585868"/></linearGradient><linearGradient id="b" x1="0" x2="1" y1="0" y2="0" gradientTransform="rotate(-90 284.983 112.095) scale(262.902)" gradientUnits="userSpaceOnUse"><stop offset="0" stop-color="#cecedb"/><stop offset=".58" stop-color="#b1b1c5"/><stop offset="1" stop-color="#9a9ab1"/></linearGradient><linearGradient id="c" x1="0" x2="1" y1="0" y2="0" gradientTransform="rotate(90 -62.513 235.4) scale(78.925)" gradientUnits="userSpaceOnUse"><stop offset="0" stop-color="#fff"/><stop offset="1" stop-color="#ccc"/></linearGradient><linearGradient id="d" x1="0" x2="1" y1="0" y2="0" gradientTransform="scale(10.6364) rotate(-87.847 31.245 2.843)" gradientUnits="userSpaceOnUse"><stop offset="0" stop-color="#3c3"/><stop offset=".01" stop-color="#3c3"/><stop offset=".36" stop-color="#1bb433"/><stop offset=".74" stop-color="#07a033"/><stop offset="1" stop-color="#093"/></linearGradient><linearGradient id="e" x1="0" x2="1" y1="0" y2="0" gradientTransform="rotate(90 -127.28 199.41) scale(13.2655)" gradientUnits="userSpaceOnUse"><stop offset="0" stop-color="#2e3436"/><stop offset="1" stop-color="#555753"/></linearGradient><linearGradient id="f" x1="0" x2="1" y1="0" y2="0" gradientTransform="scale(9.52611) rotate(-88.79 22.544 15.396)" gradientUnits="userSpaceOnUse"><stop offset="0" stop-color="#3c3"/><stop offset=".01" stop-color="#3c3"/><stop offset=".36" stop-color="#1bb433"/><stop offset=".74" stop-color="#07a033"/><stop offset="1" stop-color="#093"/></linearGradient><linearGradient id="g" x1="0" x2="1" y1="0" y2="0" gradientTransform="rotate(90 -127.28 199.41) scale(13.2655)" gradientUnits="userSpaceOnUse"><stop offset="0" stop-color="#2e3436"/><stop offset="1" stop-color="#555753"/></linearGradient><linearGradient id="h" x1="0" x2="1" y1="0" y2="0" gradientTransform="scale(9.52611) rotate(-88.79 22.544 15.396)" gradientUnits="userSpaceOnUse"><stop offset="0" stop-color="#3c3"/><stop offset=".01" stop-color="#3c3"/><stop offset=".36" stop-color="#1bb433"/><stop offset=".74" stop-color="#07a033"/><stop offset="1" stop-color="#093"/></linearGradient><linearGradient id="i" x1="0" x2="1" y1="0" y2="0" gradientTransform="rotate(90 -127.28 199.41) scale(13.2655)" gradientUnits="userSpaceOnUse"><stop offset="0" stop-color="#2e3436"/><stop offset="1" stop-color="#555753"/></linearGradient><linearGradient id="j" x1="0" x2="1" y1="0" y2="0" gradientTransform="scale(9.52611) rotate(-88.79 22.544 15.396)" gradientUnits="userSpaceOnUse"><stop offset="0" stop-color="#3c3"/><stop offset=".01" stop-color="#3c3"/><stop offset=".36" stop-color="#1bb433"/><stop offset=".74" stop-color="#07a033"/><stop offset="1" stop-color="#093"/></linearGradient><linearGradient id="k" x1="0" x2="1" y1="0" y2="0" gradientTransform="rotate(90 -127.28 199.41) scale(13.2655)" gradientUnits="userSpaceOnUse"><stop offset="0" stop-color="#2e3436"/><stop offset="1" stop-color="#555753"/></linearGradient><linearGradient id="l" x1="0" x2="1" y1="0" y2="0" gradientTransform="scale(9.52611) rotate(-88.79 22.544 15.396)" gradientUnits="userSpaceOnUse"><stop offset="0" stop-color="#3c3"/><stop offset=".01" stop-color="#3c3"/><stop offset=".36" stop-color="#1bb433"/><stop offset=".74" stop-color="#07a033"/><stop offset="1" stop-color="#093"/></linearGradient></defs></svg>