<svg xmlns="http://www.w3.org/2000/svg" xml:space="preserve" style="fill-rule:evenodd;clip-rule:evenodd;stroke-linejoin:round;stroke-miterlimit:2" viewBox="0 0 216 256"><path d="M106.95 0c-6 0-12.02 1.18-17.46 4.12-5.78 3.11-10.52 8.09-13.43 13.97-2.92 5.88-4.06 12.16-4.24 19.08-.33 13.14.3 26.92 1.29 39.41.26 3.8.74 6.02.25 9.93-1.62 8.3-8.88 13.88-12.76 21.17-4.27 8.04-6.07 17.13-9.29 25.65-2.95 7.79-7.09 15.1-9.88 22.95-3.91 10.97-5.08 23.03-2.5 34.39 1.97 8.66 6.08 16.78 11.62 23.73-.8 1.44-1.58 2.91-2.4 4.34-2.57 4.43-5.71 8.64-7.17 13.55-.73 2.45-1.02 5.07-.55 7.59.47 2.52 1.75 4.93 3.75 6.53 1.31 1.04 2.9 1.72 4.53 2.1 1.63.37 3.32.46 5 .43 6.37-.14 12.55-2.07 18.71-3.69 3.66-.96 7.34-1.81 11.03-2.58 13.14-2.69 27.8-1.61 39.99.15 4.13.63 8.23 1.44 12.29 2.43 6.36 1.54 12.69 3.5 19.23 3.69 1.72.05 3.46-.03 5.14-.4 1.68-.38 3.31-1.06 4.65-2.13 2.01-1.6 3.29-4.02 3.76-6.54.47-2.52.18-5.15-.56-7.61-1.48-4.92-4.65-9.11-7.27-13.52-1.04-1.75-2-3.53-3.03-5.28 7.9-8.87 14.26-19.13 17.94-30.4 4.01-12.3 4.75-25.55 3.06-38.38-1.69-12.83-5.76-25.27-11.11-37.05-6.72-14.76-12.37-20.1-16.47-33.07-4.42-14.02-.77-30.61-4.06-43.32-1.17-4.32-3.04-8.45-5.45-12.23-2.82-4.43-6.4-8.39-10.65-11.47C124.13 2.62 115.61 0 106.95 0Z" style="fill:#020204;fill-rule:nonzero"/><path d="M83.13 74c-.9 1.13-1.48 2.49-1.84 3.89-.35 1.4-.48 2.85-.54 4.3-.11 2.89.07 5.83-.7 8.62-.82 2.98-2.65 5.57-4.44 8.08-3.11 4.36-6.25 8.84-7.78 13.97a24.81 24.81 0 0 0-.91 9.62c-3.47 5.1-6.48 10.53-8.98 16.18-3.78 8.57-6.37 17.69-7.28 27.01-1.12 11.41.34 23.15 4.85 33.69 3.25 7.63 8.11 14.6 14.38 20.04a49.137 49.137 0 0 0 10.5 6.97c13.11 6.45 29.31 6.46 42.2-.41 6.74-3.59 12.43-8.84 17.91-14.15 3.3-3.2 6.59-6.48 9.11-10.32 4.85-7.41 6.54-16.41 7.59-25.2 1.83-15.36 1.89-31.6-4.85-45.53-2.32-4.8-5.41-9.22-9.12-13.05-.98-6.7-2.93-13.27-5.76-19.42-2.05-4.45-4.54-8.68-6.44-13.18-.78-1.85-1.46-3.75-2.32-5.56-.87-1.81-1.93-3.55-3.39-4.94-1.48-1.42-3.33-2.43-5.28-3.07-1.95-.65-4.01-.94-6.06-1.04-4.11-.21-8.22.33-12.33.16-3.27-.13-6.53-.7-9.8-.51-1.63.1-3.26.39-4.78 1.01-1.52.61-2.92 1.56-3.94 2.84Z" style="fill:#fdfdfb;fill-rule:nonzero"/><path d="M63.98 100.91c-6.1 6.92-12.37 13.63-15.81 21.12-1.71 3.8-2.51 7.93-3.68 11.93-1.32 4.54-3.12 8.94-5.14 13.22-1.87 3.95-3.93 7.81-5.98 11.66-1.5 2.81-3.02 5.67-3.54 8.81-.41 2.48-.18 5.04.46 7.47.63 2.43 1.64 4.75 2.79 6.98 4.88 9.55 12.21 17.77 20.89 24.07 3.94 2.85 8.15 5.32 12.58 7.35 2.4 1.09 4.92 2.07 7.56 2.11 1.32.03 2.65-.19 3.86-.72 1.2-.53 2.28-1.38 3-2.49.88-1.36 1.18-3.05 1-4.66-.18-1.61-.81-3.15-1.65-4.53-2.06-3.38-5.31-5.83-8.44-8.25a283.364 283.364 0 0 1-19.55-16.58c-1.76-1.65-3.53-3.34-4.76-5.42-1.2-2.02-1.85-4.32-2.29-6.63-1.21-6.33-.9-12.99 1.25-19.07.85-2.38 1.96-4.65 3.04-6.93 1.86-3.95 3.62-7.98 6.07-11.6 3.05-4.51 7.13-8.33 9.61-13.17 2.1-4.09 2.95-8.68 3.76-13.2.64-3.54 1.85-7 2.47-10.54-1.21 2.3-5.11 6.07-7.5 9.07ZM162.76 127.12c5.24 4.22 8.57 10.59 9.6 17.24.8 5.18.28 10.51-.89 15.62-1.17 5.12-2.97 10.06-4.77 15-.71 1.96-1.43 3.95-1.71 6.02-.29 2.08-.11 4.27.89 6.11 1.15 2.11 3.29 3.56 5.59 4.24 2.27.68 4.72.66 7.02.09 2.3-.57 6.17-1.31 8.04-2.77 4.75-3.69 5.88-10.1 7.01-15.72 1.17-5.87.6-12.02-.43-17.95-1.41-8.09-3.78-15.99-6.79-23.62a82.278 82.278 0 0 0-8.44-15.96c-3.32-4.89-8.02-8.7-11.5-13.48-1.21-1.66-2.66-3.38-3.84-5.06-2.56-3.62-1.98-2.94-3.57-5.29-1.15-1.7-2.97-2.28-4.88-3.02-1.92-.74-4.06-.96-6.04-.41-2.6.73-4.73 2.79-5.86 5.24-1.13 2.46-1.33 5.28-.89 7.95.57 3.44 2.14 6.64 3.92 9.64 2 3.39 4.32 6.66 7.35 9.18 3.16 2.63 6.98 4.37 10.19 6.95Z" style="fill:#020204;fill-rule:nonzero"/><path d="M34.98 175.33c1.38-.57 2.93-.68 4.39-.41 1.47.27 2.86.91 4.09 1.74 2.47 1.68 4.3 4.12 6.05 6.54 4.03 5.54 7.9 11.2 11.42 17.08 2.85 4.78 5.46 9.71 8.76 14.18 2.15 2.93 4.57 5.64 6.73 8.55 2.16 2.92 4.07 6.08 5.03 9.58 1.25 4.55.76 9.56-1.4 13.75-1.52 2.95-3.86 5.48-6.7 7.19-2.84 1.71-5.83 2.47-9.15 2.47-5.27 0-10.42-2.83-15.32-4.78-9.98-3.98-20.82-5.22-31.11-8.32-3.16-.95-6.27-2.08-9.45-2.95-1.42-.39-2.85-.73-4.19-1.34-1.34-.6-2.59-1.51-3.33-2.77-.57-.98-.8-2.13-.8-3.26 0-1.14.28-2.26.67-3.32.77-2.13 2.02-4.06 2.86-6.17 1.37-3.44 1.62-7.23 1.43-10.93-.18-3.69-.78-7.36-1.03-11.05-.12-1.65-.16-3.32.16-4.95.31-1.62 1.01-3.21 2.2-4.35 1.1-1.06 2.55-1.69 4.05-2 1.49-.31 3.03-.32 4.55-.29 1.52.03 3.05.12 4.57-.01 1.52-.12 3.05-.46 4.37-1.22 1.26-.72 2.29-1.79 3.14-2.96.85-1.17 1.54-2.45 2.25-3.72.7-1.26 1.43-2.52 2.36-3.64.92-1.12 2.06-2.09 3.4-2.64ZM213.47 222.92c-2.26 2.68-5.4 4.45-8.53 6.05-5.33 2.71-10.86 5.1-15.87 8.37-3.36 2.19-6.46 4.76-9.36 7.53-2.48 2.37-4.83 4.9-7.61 6.91-2.81 2.03-6.05 3.5-9.48 4.01-.95.14-1.9.21-2.86.21-3.24 0-6.48-.78-9.46-2.08-2.7-1.17-5.3-2.86-6.86-5.36-1.56-2.52-1.92-5.59-1.92-8.56-.01-5.23.96-10.41 1.87-15.57.76-4.29 1.48-8.58 1.95-12.91.85-7.86.84-15.81.28-23.71-.1-1.32-.21-2.65-.01-3.96.2-1.31.74-2.62 1.74-3.48.93-.8 2.17-1.16 3.4-1.22 1.22-.07 2.44.12 3.65.3 2.85.42 5.73.74 8.52 1.48 1.76.46 3.48 1.08 5.23 1.56 2.94.79 6.01 1.17 9.02.82 3.25-.38 6.41-1.6 9.68-1.52 1.34.03 2.67.28 3.95.69 1.3.41 2.59 1 3.55 1.98.73.74 1.24 1.67 1.62 2.64.57 1.44.88 2.98 1.01 4.52.11 1.37.09 2.76.35 4.11.43 2.21 1.6 4.24 3.04 5.97 1.45 1.74 3.18 3.21 4.91 4.66 1.73 1.45 3.46 2.89 5.32 4.16.87.6 1.77 1.16 2.6 1.81.83.66 1.59 1.42 2.11 2.34.45.81.69 1.72.69 2.65 0 .52-.07 1.04-.23 1.56-.45 1.43-1.28 2.82-2.3 4.04Z" style="fill:#ebc10b;fill-rule:nonzero"/><path d="M189.55 178.72c-.35-.95-.97-1.79-1.72-2.47-.75-.68-1.64-1.2-2.57-1.6-1.86-.79-3.89-1.09-5.89-1.46-1.87-.35-3.74-.78-5.62-1.1-1.96-.33-3.98-.55-5.92-.11-1.69.38-3.26 1.26-4.54 2.43-1.28 1.17-2.28 2.63-3 4.21-1.27 2.79-1.67 5.92-1.43 8.97.18 2.27.76 4.61 2.25 6.32 1.21 1.39 2.92 2.26 4.68 2.78 3.04.9 6.35.85 9.36-.13a24.707 24.707 0 0 0 12.35-9.29c.98-1.43 1.82-2.98 2.2-4.66.29-1.28.3-2.66-.15-3.89Z" style="fill:#020204;fill-rule:nonzero"/><path d="M84.45 38.28c-1.53.08-3 .79-4.12 1.84-1.13 1.05-1.92 2.43-2.41 3.88-.97 2.92-.75 6.08-.53 9.15.2 2.77.41 5.6 1.45 8.18.52 1.3 1.25 2.51 2.22 3.51.97.99 2.2 1.76 3.55 2.09 1.26.32 2.62.26 3.86-.13 1.25-.4 2.38-1.11 3.32-2.02 1.36-1.33 2.27-3.07 2.8-4.9.53-1.83.68-3.75.65-5.66-.04-2.38-.35-4.77-1.09-7.03-.75-2.26-1.94-4.4-3.6-6.11-.8-.83-1.72-1.55-2.75-2.06-1.04-.51-2.2-.8-3.35-.74Z" style="fill:url(#a);fill-rule:nonzero"/><path d="M80.75 50.99c-.32 1.94-.33 3.97.33 5.81.44 1.22 1.17 2.33 2.05 3.28.57.62 1.23 1.18 1.99 1.55.77.37 1.65.52 2.48.32.76-.19 1.42-.68 1.91-1.29s.82-1.34 1.05-2.09c.69-2.21.58-4.62-.11-6.83-.49-1.61-1.32-3.16-2.6-4.24-.62-.52-1.34-.93-2.12-1.11-.78-.19-1.63-.14-2.36.19-.81.37-1.44 1.07-1.85 1.86-.41.79-.62 1.67-.77 2.55Z" style="fill:#020204;fill-rule:nonzero"/><path d="M111.61 38.28c-2.39 1.65-4.4 3.94-5.38 6.68-1.24 3.45-.77 7.31.43 10.77 1.22 3.55 3.27 6.93 6.36 9.06 1.54 1.07 3.33 1.8 5.19 2.02 1.87.22 3.8-.09 5.47-.95 2.02-1.06 3.57-2.91 4.53-4.98.96-2.08 1.37-4.37 1.5-6.66.16-2.9-.12-5.86-1.08-8.61-1.04-2.99-2.92-5.75-5.58-7.47-1.32-.86-2.83-1.45-4.4-1.67a9.397 9.397 0 0 0-4.67.52c-.84.33-1.62.78-2.37 1.29Z" style="fill:url(#b);fill-rule:nonzero"/><path d="M117.14 45.52c-.9.06-1.78.37-2.55.85-.76.48-1.41 1.13-1.92 1.88-1.03 1.49-1.48 3.31-1.55 5.12-.05 1.35.1 2.72.55 4 .45 1.28 1.2 2.47 2.25 3.33 1.07.89 2.42 1.42 3.81 1.49 1.39.06 2.79-.34 3.93-1.13.91-.63 1.64-1.5 2.16-2.48.52-.97.84-2.05.98-3.15.25-1.93-.03-3.95-.93-5.69-.89-1.74-2.41-3.17-4.24-3.84-.8-.29-1.65-.44-2.49-.38Z" style="fill:#020204;fill-rule:nonzero"/><path d="M77.14 75.05c.06.26.15.5.28.73.23.38.57.69.93.95.36.27.75.49 1.13.72 2.01 1.27 3.65 3.04 5.11 4.92 1.95 2.52 3.68 5.31 6.29 7.14 1.84 1.3 4.04 2.03 6.28 2.26 2.63.26 5.29-.16 7.83-.91 2.35-.69 4.62-1.66 6.7-2.95 3.97-2.44 7.28-6.02 11.65-7.63.95-.35 1.94-.6 2.86-1.03.92-.44 1.79-1.08 2.23-2 .42-.88.4-1.9.54-2.87.15-1.03.48-2.03.66-3.06.18-1.03.2-2.13-.24-3.08-.37-.78-1.04-1.4-1.81-1.79-.77-.4-1.64-.58-2.51-.62-1.72-.08-3.43.36-5.16.52-2.28.21-4.58-.09-6.87-.02-2.85.09-5.66.73-8.51.87-3.25.15-6.49-.35-9.74-.48-1.41-.06-2.83-.04-4.22.2-1.39.23-2.75.71-3.91 1.51-1.13.78-2.03 1.84-3.07 2.74-.52.45-1.08.86-1.7 1.16-.61.3-1.29.49-1.98.47-.35-.01-.72-.06-1.05.04-.21.07-.4.2-.56.35-.16.16-.29.34-.41.52-.29.42-.54.87-.75 1.34Z" style="fill:#ebc10b;fill-rule:nonzero"/><clipPath id="c"><path d="M77.14 75.05c.06.26.15.5.28.73.23.38.57.69.93.95.36.27.75.49 1.13.72 2.01 1.27 3.65 3.04 5.11 4.92 1.95 2.52 3.68 5.31 6.29 7.14 1.84 1.3 4.04 2.03 6.28 2.26 2.63.26 5.29-.16 7.83-.91 2.35-.69 4.62-1.66 6.7-2.95 3.97-2.44 7.28-6.02 11.65-7.63.95-.35 1.94-.6 2.86-1.03.92-.44 1.79-1.08 2.23-2 .42-.88.4-1.9.54-2.87.15-1.03.48-2.03.66-3.06.18-1.03.2-2.13-.24-3.08-.37-.78-1.04-1.4-1.81-1.79-.77-.4-1.64-.58-2.51-.62-1.72-.08-3.43.36-5.16.52-2.28.21-4.58-.09-6.87-.02-2.85.09-5.66.73-8.51.87-3.25.15-6.49-.35-9.74-.48-1.41-.06-2.83-.04-4.22.2-1.39.23-2.75.71-3.91 1.51-1.13.78-2.03 1.84-3.07 2.74-.52.45-1.08.86-1.7 1.16-.61.3-1.29.49-1.98.47-.35-.01-.72-.06-1.05.04-.21.07-.4.2-.56.35-.16.16-.29.34-.41.52-.29.42-.54.87-.75 1.34Z"/></clipPath><g clip-path="url(#c)"><path d="M84.31 67.86c-1.16.68-2.27 1.43-3.36 2.2-.57.41-1.15.84-1.45 1.47-.21.44-.26.94-.27 1.43 0 .5.03.99-.04 1.48-.04.33-.13.66-.14.99-.01.17 0 .34.04.5.05.16.13.32.24.44.15.16.35.26.56.32.21.06.42.09.64.14 1.01.24 1.89.86 2.66 1.56.77.69 1.47 1.48 2.28 2.13 2.18 1.78 5.07 2.52 7.89 2.56 2.82.05 5.61-.54 8.36-1.16 2.16-.49 4.32-.99 6.39-1.76 3.2-1.18 6.16-2.96 8.72-5.19 1.17-1.01 2.26-2.12 3.57-2.94 1.15-.73 2.44-1.21 3.62-1.9.11-.06.21-.13.3-.2.1-.08.18-.18.24-.28.09-.19.09-.42.03-.62s-.18-.38-.31-.55c-.15-.18-.31-.34-.49-.5-1.23-1.05-2.89-1.43-4.51-1.56-1.61-.12-3.24-.03-4.83-.3-1.5-.25-2.92-.81-4.37-1.27-1.52-.49-3.07-.87-4.64-1.13-3.71-.61-7.52-.49-11.19.27-3.49.73-6.87 2.05-9.94 3.87Z" style="fill:#604405;fill-rule:nonzero"/></g><path d="M83.94 63.95a20.752 20.752 0 0 0-4.43 4.04c-.72.89-1.38 1.86-1.74 2.94-.29.86-.39 1.76-.57 2.65-.07.33-.15.66-.14 1 0 .16.02.33.07.5.05.16.14.31.25.43.2.2.47.31.74.37.28.05.56.06.84.09 1.25.15 2.4.75 3.44 1.47 1.04.71 2 1.55 3.07 2.22 2.35 1.49 5.16 2.15 7.95 2.26 2.78.11 5.56-.31 8.3-.86 2.17-.43 4.33-.95 6.39-1.76 3.16-1.25 6.01-3.16 8.72-5.19 1.24-.92 2.46-1.87 3.57-2.94.37-.37.74-.74 1.14-1.08.4-.33.85-.62 1.35-.78.76-.24.399-.246 1.189-.116.59.1 1.18.23 1.78.21.3-.02.6-.07.88-.18.28-.11.616-.509.806-.749.25-.3.304-.471.304-.861 0-.4-.12-.79-.32-1.13-.4-.68-1.09-1.14-1.81-1.46-.99-.44-.879-.574-1.929-.834-3.23-.78-6.37-1.93-9.34-3.41-1.48-.73-2.92-1.54-4.37-2.32-1.5-.8-3.02-1.57-4.64-2.07-3.64-1.1-7.6-.74-11.19.51a23.882 23.882 0 0 0-10.31 7.05Z" style="fill:#ebc10b;fill-rule:nonzero"/><defs><radialGradient id="a" cx="0" cy="0" r="1" gradientTransform="matrix(10.2394 -.10723 .1642 15.6791 86.49 51.41)" gradientUnits="userSpaceOnUse"><stop offset="0" style="stop-color:#fefefc;stop-opacity:1"/><stop offset=".75" style="stop-color:#fefefc;stop-opacity:1"/><stop offset="1" style="stop-color:#d4d4d4;stop-opacity:1"/></radialGradient><radialGradient id="b" cx="0" cy="0" r="1" gradientTransform="matrix(13.6333 -.42844 .49252 15.6723 118.06 51.41)" gradientUnits="userSpaceOnUse"><stop offset="0" style="stop-color:#fefefc;stop-opacity:1"/><stop offset=".75" style="stop-color:#fefefc;stop-opacity:1"/><stop offset="1" style="stop-color:#d4d4d4;stop-opacity:1"/></radialGradient></defs></svg>